<svg width="148" height="74" viewBox="0 0 148 74" fill="none" xmlns="http://www.w3.org/2000/svg">
<path d="M1 18.0471L21 12.3647L60.25 14.5882L90 1H129.5L147 22" stroke="url(#paint0_linear_0_356)"/>
<path d="M38.8145 39.7148V42H28.5703V39.7148H38.8145ZM29.4395 39.7148V45.4863H26.6855L26.5293 39.7148H29.4395ZM40.9238 39.7148L40.6699 45.4961H37.9844V39.7148H40.9238ZM37.2031 27.7812V30.0762H30.3574V27.7812H37.2031ZM39.293 27.7812V42H36.373V27.7812H39.293ZM29.9961 27.7812H32.9258L32.5449 33.5723C32.4863 34.5293 32.3822 35.3757 32.2324 36.1113C32.0892 36.8405 31.9134 37.4818 31.7051 38.0352C31.5033 38.5885 31.2786 39.0736 31.0312 39.4902C30.7839 39.9004 30.5234 40.2585 30.25 40.5645C29.9766 40.8639 29.6999 41.1309 29.4199 41.3652C29.14 41.5931 28.8665 41.8047 28.5996 42H26.9199V39.7148H27.5742C27.763 39.5586 27.9616 39.3438 28.1699 39.0703C28.3848 38.7969 28.5866 38.429 28.7754 37.9668C28.9707 37.498 29.14 36.9056 29.2832 36.1895C29.4329 35.4733 29.5436 34.6009 29.6152 33.5723L29.9961 27.7812ZM41.8125 36.8242V36.6191C41.8125 35.8444 41.9232 35.1315 42.1445 34.4805C42.3659 33.8229 42.6882 33.2533 43.1113 32.7715C43.5345 32.2897 44.0553 31.9154 44.6738 31.6484C45.2923 31.375 46.002 31.2383 46.8027 31.2383C47.6035 31.2383 48.3164 31.375 48.9414 31.6484C49.5664 31.9154 50.0905 32.2897 50.5137 32.7715C50.9434 33.2533 51.2689 33.8229 51.4902 34.4805C51.7116 35.1315 51.8223 35.8444 51.8223 36.6191V36.8242C51.8223 37.5924 51.7116 38.3053 51.4902 38.9629C51.2689 39.6139 50.9434 40.1836 50.5137 40.6719C50.0905 41.1536 49.5697 41.528 48.9512 41.7949C48.3327 42.0618 47.623 42.1953 46.8223 42.1953C46.0215 42.1953 45.3086 42.0618 44.6836 41.7949C44.0651 41.528 43.541 41.1536 43.1113 40.6719C42.6882 40.1836 42.3659 39.6139 42.1445 38.9629C41.9232 38.3053 41.8125 37.5924 41.8125 36.8242ZM44.625 36.6191V36.8242C44.625 37.2669 44.6641 37.6803 44.7422 38.0645C44.8203 38.4486 44.944 38.7871 45.1133 39.0801C45.2891 39.3665 45.5169 39.5911 45.7969 39.7539C46.0768 39.9167 46.4186 39.998 46.8223 39.998C47.2129 39.998 47.5482 39.9167 47.8281 39.7539C48.1081 39.5911 48.3327 39.3665 48.502 39.0801C48.6712 38.7871 48.7949 38.4486 48.873 38.0645C48.9577 37.6803 49 37.2669 49 36.8242V36.6191C49 36.1895 48.9577 35.7858 48.873 35.4082C48.7949 35.0241 48.668 34.6855 48.4922 34.3926C48.3229 34.0931 48.0983 33.8587 47.8184 33.6895C47.5384 33.5202 47.1999 33.4355 46.8027 33.4355C46.4056 33.4355 46.0671 33.5202 45.7871 33.6895C45.5137 33.8587 45.2891 34.0931 45.1133 34.3926C44.944 34.6855 44.8203 35.0241 44.7422 35.4082C44.6641 35.7858 44.625 36.1895 44.625 36.6191ZM57.916 39.998C58.2611 39.998 58.5671 39.9329 58.834 39.8027C59.1009 39.666 59.3092 39.4772 59.459 39.2363C59.6152 38.9889 59.6966 38.6992 59.7031 38.3672H62.3496C62.3431 39.1094 62.1445 39.7702 61.7539 40.3496C61.3633 40.9225 60.8392 41.375 60.1816 41.707C59.5241 42.0326 58.7884 42.1953 57.9746 42.1953C57.1543 42.1953 56.4382 42.0586 55.8262 41.7852C55.2207 41.5117 54.7161 41.1341 54.3125 40.6523C53.9089 40.1641 53.6061 39.5977 53.4043 38.9531C53.2025 38.3021 53.1016 37.6055 53.1016 36.8633V36.5801C53.1016 35.8314 53.2025 35.1348 53.4043 34.4902C53.6061 33.8392 53.9089 33.2728 54.3125 32.791C54.7161 32.3027 55.2207 31.9219 55.8262 31.6484C56.4316 31.375 57.1413 31.2383 57.9551 31.2383C58.821 31.2383 59.5794 31.4043 60.2305 31.7363C60.888 32.0684 61.4023 32.5436 61.7734 33.1621C62.151 33.7741 62.3431 34.5 62.3496 35.3398H59.7031C59.6966 34.9883 59.6217 34.6693 59.4785 34.3828C59.3418 34.0964 59.14 33.8685 58.873 33.6992C58.6126 33.5234 58.2904 33.4355 57.9062 33.4355C57.4961 33.4355 57.1608 33.5234 56.9004 33.6992C56.64 33.8685 56.4382 34.1029 56.2949 34.4023C56.1517 34.6953 56.0508 35.0306 55.9922 35.4082C55.9401 35.7793 55.9141 36.1699 55.9141 36.5801V36.8633C55.9141 37.2734 55.9401 37.6673 55.9922 38.0449C56.0443 38.4225 56.1419 38.7578 56.2852 39.0508C56.4349 39.3438 56.64 39.5749 56.9004 39.7441C57.1608 39.9134 57.4993 39.998 57.916 39.998ZM69.3613 31.4336V42H66.5391V31.4336H69.3613ZM72.7598 31.4336V33.6113H63.1895V31.4336H72.7598ZM77.4473 40.8086L80.25 31.4336H83.2676L79.0195 43.5918C78.9284 43.8587 78.8047 44.1452 78.6484 44.4512C78.4987 44.7572 78.2936 45.0469 78.0332 45.3203C77.7793 45.6003 77.457 45.8281 77.0664 46.0039C76.6823 46.1797 76.2103 46.2676 75.6504 46.2676C75.3835 46.2676 75.1654 46.2513 74.9961 46.2188C74.8268 46.1862 74.625 46.1406 74.3906 46.082V44.0215C74.4622 44.0215 74.5371 44.0215 74.6152 44.0215C74.6934 44.028 74.7682 44.0312 74.8398 44.0312C75.2109 44.0312 75.5137 43.9889 75.748 43.9043C75.9824 43.8197 76.1712 43.6895 76.3145 43.5137C76.4577 43.3444 76.5716 43.123 76.6562 42.8496L77.4473 40.8086ZM76.2754 31.4336L78.5703 39.0898L78.9707 42.0684L77.0566 42.2734L73.2578 31.4336H76.2754ZM91.5 31.4336V33.6406H86.3828V31.4336H91.5ZM87.1934 31.4336V42H84.3809V31.4336H87.1934ZM93.5508 31.4336V42H90.7285V31.4336H93.5508ZM100.582 42.1953C99.7617 42.1953 99.026 42.0651 98.375 41.8047C97.724 41.5378 97.1706 41.1699 96.7148 40.7012C96.2656 40.2324 95.9206 39.6888 95.6797 39.0703C95.4388 38.4453 95.3184 37.7812 95.3184 37.0781V36.6875C95.3184 35.8867 95.4323 35.1543 95.6602 34.4902C95.888 33.8262 96.2135 33.25 96.6367 32.7617C97.0664 32.2734 97.5872 31.8991 98.1992 31.6387C98.8112 31.3717 99.5013 31.2383 100.27 31.2383C101.018 31.2383 101.682 31.362 102.262 31.6094C102.841 31.8568 103.326 32.2083 103.717 32.6641C104.114 33.1198 104.413 33.6667 104.615 34.3047C104.817 34.9362 104.918 35.6393 104.918 36.4141V37.5859H96.5195V35.7109H102.154V35.4961C102.154 35.1055 102.083 34.7572 101.939 34.4512C101.803 34.1387 101.594 33.8913 101.314 33.709C101.035 33.5267 100.676 33.4355 100.24 33.4355C99.8691 33.4355 99.5501 33.5169 99.2832 33.6797C99.0163 33.8424 98.7982 34.0703 98.6289 34.3633C98.4661 34.6562 98.3424 35.0013 98.2578 35.3984C98.1797 35.7891 98.1406 36.2188 98.1406 36.6875V37.0781C98.1406 37.5013 98.1992 37.8919 98.3164 38.25C98.4401 38.6081 98.6126 38.9173 98.834 39.1777C99.0618 39.4382 99.3353 39.64 99.6543 39.7832C99.9798 39.9264 100.348 39.998 100.758 39.998C101.266 39.998 101.738 39.9004 102.174 39.7051C102.617 39.5033 102.997 39.2005 103.316 38.7969L104.684 40.2812C104.462 40.6003 104.16 40.9062 103.775 41.1992C103.398 41.4922 102.942 41.7331 102.408 41.9219C101.874 42.1042 101.266 42.1953 100.582 42.1953ZM113.756 35.7012V37.8887H108.385V35.7012H113.756ZM109.322 31.4336V42H106.51V31.4336H109.322ZM115.66 31.4336V42H112.838V31.4336H115.66ZM13.1699 63.5859H9.85938L9.83984 61.7402H12.5742C12.9388 61.7402 13.235 61.7044 13.4629 61.6328C13.6908 61.5547 13.8568 61.4408 13.9609 61.291C14.0716 61.1348 14.127 60.946 14.127 60.7246C14.127 60.5293 14.0911 60.3633 14.0195 60.2266C13.9544 60.0833 13.8535 59.9661 13.7168 59.875C13.5801 59.7839 13.4076 59.7188 13.1992 59.6797C12.9974 59.6341 12.7598 59.6113 12.4863 59.6113H10.9043V68H8.0918V57.4336H12.4863C13.1764 57.4336 13.7949 57.4954 14.3418 57.6191C14.8887 57.7363 15.3542 57.9154 15.7383 58.1562C16.1289 58.3971 16.4251 58.7031 16.627 59.0742C16.8353 59.4388 16.9395 59.8717 16.9395 60.373C16.9395 60.6986 16.8646 61.0046 16.7148 61.291C16.5716 61.5775 16.3568 61.8314 16.0703 62.0527C15.7839 62.2741 15.429 62.4564 15.0059 62.5996C14.5892 62.7363 14.1074 62.821 13.5605 62.8535L13.1699 63.5859ZM13.1699 68H9.16602L10.1328 65.8223H13.1699C13.515 65.8223 13.7982 65.7799 14.0195 65.6953C14.2409 65.6107 14.4036 65.487 14.5078 65.3242C14.6185 65.1549 14.6738 64.9531 14.6738 64.7188C14.6738 64.4909 14.625 64.2923 14.5273 64.123C14.4297 63.9538 14.2702 63.8236 14.0488 63.7324C13.834 63.6348 13.541 63.5859 13.1699 63.5859H10.543L10.5625 61.7402H13.5508L14.2344 62.4824C14.9766 62.528 15.5885 62.668 16.0703 62.9023C16.5521 63.1367 16.9069 63.4362 17.1348 63.8008C17.3691 64.1589 17.4863 64.5527 17.4863 64.9824C17.4863 65.4837 17.3919 65.9232 17.2031 66.3008C17.0143 66.6784 16.7344 66.9941 16.3633 67.248C15.9987 67.4954 15.5495 67.6842 15.0156 67.8145C14.4818 67.9382 13.8665 68 13.1699 68ZM31.3047 57.4336V59.6406H26.1875V57.4336H31.3047ZM26.998 57.4336V68H24.1855V57.4336H26.998ZM33.3555 57.4336V68H30.5332V57.4336H33.3555ZM38.3359 59.4648V72.0625H35.5234V57.4336H38.1309L38.3359 59.4648ZM45.0254 62.5996V62.8047C45.0254 63.5729 44.9342 64.2858 44.752 64.9434C44.5762 65.6009 44.3158 66.1738 43.9707 66.6621C43.6257 67.1439 43.196 67.5215 42.6816 67.7949C42.1738 68.0618 41.5879 68.1953 40.9238 68.1953C40.2793 68.1953 39.7194 68.0651 39.2441 67.8047C38.7689 67.5443 38.3685 67.1797 38.043 66.7109C37.724 66.2357 37.4668 65.6855 37.2715 65.0605C37.0762 64.4355 36.9264 63.765 36.8223 63.0488V62.5117C36.9264 61.7435 37.0762 61.0404 37.2715 60.4023C37.4668 59.7578 37.724 59.2012 38.043 58.7324C38.3685 58.2572 38.7656 57.8893 39.2344 57.6289C39.7096 57.3685 40.2663 57.2383 40.9043 57.2383C41.5749 57.2383 42.1641 57.3652 42.6719 57.6191C43.1862 57.873 43.6159 58.2376 43.9609 58.7129C44.3125 59.1882 44.5762 59.7546 44.752 60.4121C44.9342 61.0697 45.0254 61.7988 45.0254 62.5996ZM42.2031 62.8047V62.5996C42.2031 62.1504 42.1641 61.737 42.0859 61.3594C42.0143 60.9753 41.8971 60.64 41.7344 60.3535C41.5781 60.0671 41.3698 59.8457 41.1094 59.6895C40.8555 59.5267 40.5462 59.4453 40.1816 59.4453C39.7975 59.4453 39.4688 59.5072 39.1953 59.6309C38.9284 59.7546 38.7103 59.9336 38.541 60.168C38.3717 60.4023 38.2448 60.6823 38.1602 61.0078C38.0755 61.3333 38.0234 61.7012 38.0039 62.1113V63.4688C38.0365 63.9505 38.1276 64.3835 38.2773 64.7676C38.4271 65.1452 38.6582 65.4447 38.9707 65.666C39.2832 65.8874 39.6934 65.998 40.2012 65.998C40.5723 65.998 40.8848 65.9167 41.1387 65.7539C41.3926 65.5846 41.5977 65.3535 41.7539 65.0605C41.9167 64.7676 42.0306 64.429 42.0957 64.0449C42.1673 63.6608 42.2031 63.2474 42.2031 62.8047ZM49.5762 64.0742L53.1211 57.4336H55.9336V68H53.1211V61.3496L49.5762 68H46.7637V57.4336H49.5762V64.0742ZM65.2109 57.4336V59.6406H60.0156V57.4336H65.2109ZM67.2715 57.4336V68H64.459V57.4336H67.2715ZM59.3125 57.4336H62.0762L61.793 62.7656C61.7539 63.5273 61.6725 64.1979 61.5488 64.7773C61.4251 65.3568 61.2591 65.8516 61.0508 66.2617C60.849 66.6719 60.6048 67.0072 60.3184 67.2676C60.0384 67.5215 59.7096 67.707 59.332 67.8242C58.9609 67.9414 58.5508 68 58.1016 68H57.2422L57.2129 65.7832L57.5742 65.7441C57.7826 65.7246 57.9648 65.666 58.1211 65.5684C58.2839 65.4642 58.4206 65.3177 58.5312 65.1289C58.6484 64.9336 58.7461 64.6895 58.8242 64.3965C58.9023 64.097 58.9642 63.7454 59.0098 63.3418C59.0618 62.9382 59.0977 62.4727 59.1172 61.9453L59.3125 57.4336ZM69 62.8242V62.6191C69 61.8444 69.1107 61.1315 69.332 60.4805C69.5534 59.8229 69.8757 59.2533 70.2988 58.7715C70.722 58.2897 71.2428 57.9154 71.8613 57.6484C72.4798 57.375 73.1895 57.2383 73.9902 57.2383C74.791 57.2383 75.5039 57.375 76.1289 57.6484C76.7539 57.9154 77.278 58.2897 77.7012 58.7715C78.1309 59.2533 78.4564 59.8229 78.6777 60.4805C78.8991 61.1315 79.0098 61.8444 79.0098 62.6191V62.8242C79.0098 63.5924 78.8991 64.3053 78.6777 64.9629C78.4564 65.6139 78.1309 66.1836 77.7012 66.6719C77.278 67.1536 76.7572 67.528 76.1387 67.7949C75.5202 68.0618 74.8105 68.1953 74.0098 68.1953C73.209 68.1953 72.4961 68.0618 71.8711 67.7949C71.2526 67.528 70.7285 67.1536 70.2988 66.6719C69.8757 66.1836 69.5534 65.6139 69.332 64.9629C69.1107 64.3053 69 63.5924 69 62.8242ZM71.8125 62.6191V62.8242C71.8125 63.2669 71.8516 63.6803 71.9297 64.0645C72.0078 64.4486 72.1315 64.7871 72.3008 65.0801C72.4766 65.3665 72.7044 65.5911 72.9844 65.7539C73.2643 65.9167 73.6061 65.998 74.0098 65.998C74.4004 65.998 74.7357 65.9167 75.0156 65.7539C75.2956 65.5911 75.5202 65.3665 75.6895 65.0801C75.8587 64.7871 75.9824 64.4486 76.0605 64.0645C76.1452 63.6803 76.1875 63.2669 76.1875 62.8242V62.6191C76.1875 62.1895 76.1452 61.7858 76.0605 61.4082C75.9824 61.0241 75.8555 60.6855 75.6797 60.3926C75.5104 60.0931 75.2858 59.8587 75.0059 59.6895C74.7259 59.5202 74.3874 59.4355 73.9902 59.4355C73.5931 59.4355 73.2546 59.5202 72.9746 59.6895C72.7012 59.8587 72.4766 60.0931 72.3008 60.3926C72.1315 60.6855 72.0078 61.0241 71.9297 61.4082C71.8516 61.7858 71.8125 62.1895 71.8125 62.6191ZM84.2539 64.0156L79.8594 57.4336H83.3457L85.5918 61.418H87.6133L87.2715 64.0156H84.2539ZM85.6309 63.5371L83.2188 68H79.8301L83.3359 62.1797L85.6309 63.5371ZM89.4395 57.4336V68H86.627V57.4336H89.4395ZM96.2363 57.4336L91.8418 64.0156H88.8242L88.4824 61.418H90.5039L92.7402 57.4336H96.2363ZM92.8672 68L90.4551 63.5371L92.8379 62.1797L96.3242 68H92.8672ZM102.359 68.1953C101.539 68.1953 100.803 68.0651 100.152 67.8047C99.5013 67.5378 98.9479 67.1699 98.4922 66.7012C98.043 66.2324 97.6979 65.6888 97.457 65.0703C97.2161 64.4453 97.0957 63.7812 97.0957 63.0781V62.6875C97.0957 61.8867 97.2096 61.1543 97.4375 60.4902C97.6654 59.8262 97.9909 59.25 98.4141 58.7617C98.8438 58.2734 99.3646 57.8991 99.9766 57.6387C100.589 57.3717 101.279 57.2383 102.047 57.2383C102.796 57.2383 103.46 57.362 104.039 57.6094C104.618 57.8568 105.104 58.2083 105.494 58.6641C105.891 59.1198 106.191 59.6667 106.393 60.3047C106.594 60.9362 106.695 61.6393 106.695 62.4141V63.5859H98.2969V61.7109H103.932V61.4961C103.932 61.1055 103.86 60.7572 103.717 60.4512C103.58 60.1387 103.372 59.8913 103.092 59.709C102.812 59.5267 102.454 59.4355 102.018 59.4355C101.646 59.4355 101.327 59.5169 101.061 59.6797C100.794 59.8424 100.576 60.0703 100.406 60.3633C100.243 60.6562 100.12 61.0013 100.035 61.3984C99.957 61.7891 99.918 62.2188 99.918 62.6875V63.0781C99.918 63.5013 99.9766 63.8919 100.094 64.25C100.217 64.6081 100.39 64.9173 100.611 65.1777C100.839 65.4382 101.113 65.64 101.432 65.7832C101.757 65.9264 102.125 65.998 102.535 65.998C103.043 65.998 103.515 65.9004 103.951 65.7051C104.394 65.5033 104.775 65.2005 105.094 64.7969L106.461 66.2812C106.24 66.6003 105.937 66.9062 105.553 67.1992C105.175 67.4922 104.719 67.7331 104.186 67.9219C103.652 68.1042 103.043 68.1953 102.359 68.1953ZM115.533 61.7012V63.8887H110.162V61.7012H115.533ZM111.1 57.4336V68H108.287V57.4336H111.1ZM117.438 57.4336V68H114.615V57.4336H117.438ZM122.428 64.0742L125.973 57.4336H128.785V68H125.973V61.3496L122.428 68H119.615V57.4336H122.428V64.0742ZM133.756 64.0742L137.301 57.4336H140.113V68H137.301V61.3496L133.756 68H130.943V57.4336H133.756V64.0742Z" fill="#70C270"/>
<defs>
<linearGradient id="paint0_linear_0_356" x1="1" y1="22" x2="146.986" y2="11.3122" gradientUnits="userSpaceOnUse">
<stop stop-color="#70C270"/>
<stop offset="0.171061" stop-color="#269ED9"/>
<stop offset="0.418599" stop-color="#269ED9"/>
<stop offset="0.635417" stop-color="#F5B83D"/>
<stop offset="1" stop-color="#F5B83D"/>
</linearGradient>
</defs>
</svg>
