<svg width="178" height="55" viewBox="0 0 178 55" fill="none" xmlns="http://www.w3.org/2000/svg">
<path d="M170.515 54.5H6.62587C3.02195 54.5 0.0703125 51.4608 0.0703125 47.75V7.25C0.0703125 3.53919 3.02195 0.5 6.62587 0.5H170.515C174.119 0.5 177.07 3.53919 177.07 7.25V47.75C177.07 51.4608 174.119 54.5 170.515 54.5Z" fill="url(#paint0_radial_1_6430)"/>
<path d="M61.0703 15.3499C61.0703 16.5484 60.7818 17.5084 60.2133 18.2243C59.5598 19.073 58.7086 19.5 57.6655 19.5C56.6686 19.5 55.8174 19.0658 55.1192 18.2099C54.4194 17.3415 54.0703 16.2757 54.0703 15C54.0703 13.7243 54.4194 12.6585 55.1192 11.7972C55.8174 10.9342 56.6686 10.5 57.6655 10.5C58.1618 10.5 58.635 10.6274 59.0866 10.8642C59.5367 11.1029 59.9032 11.4258 60.1686 11.8242L59.5656 12.5813C59.1025 11.9013 58.472 11.5658 57.6655 11.5658C56.9384 11.5658 56.3079 11.8816 55.7727 12.5185C55.2432 13.1573 54.9778 13.9845 54.9778 15C54.9778 16.0156 55.2432 16.8499 55.7727 17.4886C56.3079 18.1184 56.9384 18.4414 57.6655 18.4414C58.4374 18.4414 59.0866 18.1184 59.5988 17.4815C59.9364 17.0598 60.1282 16.4785 60.1787 15.7356H57.6655V14.6986H61.0184C61.0588 14.9228 61.0703 15.14 61.0703 15.3499Z" fill="#F5FAFE" stroke="#F5FAFE" stroke-width="0.16" stroke-miterlimit="10"/>
<path d="M69.0703 11.4825H65.1735V14.0179H68.6865V14.9821H65.1735V17.5175H69.0703V18.5H64.0703V10.5H69.0703V11.4825Z" fill="#F5FAFE" stroke="#F5FAFE" stroke-width="0.16" stroke-miterlimit="10"/>
<path d="M72.0382 18.5H71.1009V11.4825H69.0703V10.5H74.0703V11.4825H72.0382V18.5Z" fill="#F5FAFE" stroke="#F5FAFE" stroke-width="0.16" stroke-miterlimit="10"/>
<path d="M79.0703 18.5V10.5H80.0703V18.5H79.0703Z" fill="#F5FAFE" stroke="#F5FAFE" stroke-width="0.16" stroke-miterlimit="10"/>
<path d="M84.0346 18.5H83.1061V11.4825H81.0703V10.5H86.0703V11.4825H84.0346V18.5Z" fill="#F5FAFE" stroke="#F5FAFE" stroke-width="0.16" stroke-miterlimit="10"/>
<path d="M97.7807 18.1956C96.9179 19.0658 95.849 19.5 94.574 19.5C93.2916 19.5 92.2227 19.0658 91.3599 18.1956C90.499 17.3272 90.0703 16.2614 90.0703 15C90.0703 13.7386 90.499 12.6728 91.3599 11.8044C92.2227 10.9342 93.2916 10.5 94.574 10.5C95.8417 10.5 96.9106 10.9342 97.7734 11.8116C98.6417 12.6872 99.0703 13.7458 99.0703 15C99.0703 16.2614 98.6417 17.3272 97.7807 18.1956ZM92.1935 17.4743C92.8429 18.1184 93.6327 18.4414 94.574 18.4414C95.5079 18.4414 96.305 18.1184 96.9471 17.4743C97.5946 16.8301 97.923 16.003 97.923 15C97.923 13.997 97.5946 13.1699 96.9471 12.5257C96.305 11.8816 95.5079 11.5586 94.574 11.5586C93.6327 11.5586 92.8429 11.8816 92.1935 12.5257C91.546 13.1699 91.2177 13.997 91.2177 15C91.2177 16.003 91.546 16.8301 92.1935 17.4743Z" fill="#F5FAFE" stroke="#F5FAFE" stroke-width="0.16" stroke-miterlimit="10"/>
<path d="M100.07 18.5V10.5H101.287L105.069 16.7219H105.113L105.069 15.1839V10.5H106.07V18.5H105.026L101.065 11.9712H101.021L101.065 13.5158V18.5H100.07Z" fill="#F5FAFE" stroke="#F5FAFE" stroke-width="0.16" stroke-miterlimit="10"/>
<path d="M89.545 29.8556C86.4699 29.8556 83.9577 32.2695 83.9577 35.6001C83.9577 38.9037 86.4699 41.3429 89.545 41.3429C92.6267 41.3429 95.1389 38.9037 95.1389 35.6001C95.1389 32.2695 92.6267 29.8556 89.545 29.8556ZM89.545 39.0809C87.8577 39.0809 86.406 37.6444 86.406 35.6001C86.406 33.5288 87.8577 32.1176 89.545 32.1176C91.2323 32.1176 92.6905 33.5288 92.6905 35.6001C92.6905 37.6444 91.2323 39.0809 89.545 39.0809ZM77.3541 29.8556C74.2724 29.8556 71.7667 32.2695 71.7667 35.6001C71.7667 38.9037 74.2724 41.3429 77.3541 41.3429C80.4341 41.3429 82.9414 38.9037 82.9414 35.6001C82.9414 32.2695 80.4341 29.8556 77.3541 29.8556ZM77.3541 39.0809C75.6651 39.0809 74.2085 37.6444 74.2085 35.6001C74.2085 33.5288 75.6651 32.1176 77.3541 32.1176C79.0414 32.1176 80.493 33.5288 80.493 35.6001C80.493 37.6444 79.0414 39.0809 77.3541 39.0809ZM62.8473 31.6163V34.0572H68.4985C68.3332 35.4212 67.8913 36.4239 67.2138 37.1228C66.3889 37.9668 65.1042 38.9037 62.8473 38.9037C59.3696 38.9037 56.6463 36.0086 56.6463 32.4215C56.6463 28.8343 59.3696 25.9393 62.8473 25.9393C64.7278 25.9393 66.096 26.6972 67.1057 27.6797L68.7734 25.9595C67.3611 24.5686 65.4822 23.5 62.8473 23.5C58.0783 23.5 54.0703 27.5024 54.0703 32.4215C54.0703 37.3405 58.0783 41.3429 62.8473 41.3429C65.425 41.3429 67.361 40.4719 68.8831 38.8378C70.4427 37.2291 70.9288 34.9671 70.9288 33.1406C70.9288 32.5734 70.883 32.0518 70.8012 31.6163H62.8473ZM122.167 33.5086C121.707 32.224 120.288 29.8556 117.398 29.8556C114.534 29.8556 112.15 32.1835 112.15 35.6001C112.15 38.8176 114.51 41.3429 117.673 41.3429C120.231 41.3429 121.707 39.7342 122.314 38.7973L120.416 37.4924C119.783 38.4479 118.92 39.0809 117.673 39.0809C116.434 39.0809 115.545 38.4952 114.976 37.3405L122.424 34.1619L122.167 33.5086ZM114.573 35.4212C114.51 33.2064 116.241 32.072 117.482 32.072C118.454 32.072 119.279 32.5734 119.554 33.2908L114.573 35.4212ZM108.52 40.9935H110.968V24.1128H108.52V40.9935ZM104.51 31.1352H104.428C103.878 30.4633 102.829 29.8556 101.5 29.8556C98.7116 29.8556 96.1617 32.381 96.1617 35.6187C96.1617 38.8378 98.7116 41.3429 101.5 41.3429C102.829 41.3429 103.878 40.7302 104.428 40.0381H104.51V40.8618C104.51 43.058 103.373 44.238 101.538 44.238C100.042 44.238 99.1142 43.1239 98.7312 42.187L96.602 43.1036C97.2157 44.6262 98.8408 46.5 101.538 46.5C104.409 46.5 106.831 44.7579 106.831 40.5192V30.205H104.51V31.1352ZM101.71 39.0809C100.022 39.0809 98.6101 37.6241 98.6101 35.6187C98.6101 33.5947 100.022 32.1176 101.71 32.1176C103.373 32.1176 104.683 33.5947 104.683 35.6187C104.683 37.6241 103.373 39.0809 101.71 39.0809ZM133.63 24.1128H127.774V40.9935H130.216V34.5974H133.63C136.342 34.5974 139.001 32.5734 139.001 29.3542C139.001 26.1368 136.335 24.1128 133.63 24.1128ZM133.694 32.2493H130.216V26.4609H133.694C135.517 26.4609 136.558 28.0223 136.558 29.3542C136.558 30.6608 135.517 32.2493 133.694 32.2493ZM148.788 29.8235C147.024 29.8235 145.189 30.627 144.435 32.408L146.601 33.3448C147.068 32.408 147.925 32.1041 148.832 32.1041C150.099 32.1041 151.384 32.8891 151.403 34.275V34.4522C150.961 34.1889 150.015 33.7989 148.852 33.7989C146.518 33.7989 144.14 35.1241 144.14 37.5971C144.14 39.8591 146.052 41.3159 148.2 41.3159C149.843 41.3159 150.75 40.5512 151.32 39.6616H151.403V40.9665H153.761V34.491C153.761 31.4981 151.595 29.8235 148.788 29.8235ZM148.493 39.0742C147.695 39.0742 146.582 38.6657 146.582 37.6444C146.582 36.3378 147.97 35.8364 149.171 35.8364C150.246 35.8364 150.75 36.0812 151.403 36.4036C151.212 37.9668 149.907 39.0742 148.493 39.0742ZM162.354 30.1932L159.547 37.511H159.463L156.562 30.1932H153.928L158.288 40.4196L155.801 46.1101H158.352L165.07 30.1932H162.354ZM140.343 40.9935H142.791V24.1128H140.343V40.9935Z" fill="#F5FAFE"/>
<path d="M14.6801 10.6012C14.2938 11.0306 14.0703 11.699 14.0703 12.5647V43.4423C14.0703 44.308 14.2938 44.9764 14.6801 45.4058L14.7754 45.5L31.0703 28.2042V27.7958L14.7754 10.5L14.6801 10.6012Z" fill="url(#paint1_linear_1_6430)"/>
<path d="M35.7542 33.5L30.0703 27.7051V27.2949L35.7611 21.5L35.8885 21.5754L42.6278 25.4801C44.5511 26.5883 44.5511 28.4117 42.6278 29.5269L35.8885 33.4246L35.7542 33.5Z" fill="url(#paint2_linear_1_6430)"/>
<path d="M36.0703 33.4108L30.5023 27.5L14.0703 44.9454C14.6817 45.6276 15.6786 45.7098 16.8123 45.0276L36.0703 33.4108Z" fill="url(#paint3_linear_1_6430)"/>
<path d="M36.0703 21.5873L16.8123 9.96661C15.6786 9.29117 14.6817 9.37341 14.0703 10.0558L30.5023 27.5L36.0703 21.5873Z" fill="url(#paint4_linear_1_6430)"/>
<defs>
<radialGradient id="paint0_radial_1_6430" cx="0" cy="0" r="1" gradientUnits="userSpaceOnUse" gradientTransform="translate(8.07032 4.55885) rotate(15.1953) scale(167.869 617.09)">
<stop offset="0.215188" stop-color="#05132E"/>
<stop offset="1" stop-color="#364D63"/>
</radialGradient>
<linearGradient id="paint1_linear_1_6430" x1="29.6235" y1="43.7639" x2="6.23357" y2="21.7364" gradientUnits="userSpaceOnUse">
<stop stop-color="#00A0FF"/>
<stop offset="0.0066" stop-color="#00A1FF"/>
<stop offset="0.2601" stop-color="#00BEFF"/>
<stop offset="0.5122" stop-color="#00D2FF"/>
<stop offset="0.7604" stop-color="#00DFFF"/>
<stop offset="1" stop-color="#00E3FF"/>
</linearGradient>
<linearGradient id="paint2_linear_1_6430" x1="45.1323" y1="27.498" x2="11.8014" y2="27.498" gradientUnits="userSpaceOnUse">
<stop stop-color="#FFE000"/>
<stop offset="0.4087" stop-color="#FFBD00"/>
<stop offset="0.7754" stop-color="#FFA500"/>
<stop offset="1" stop-color="#FF9C00"/>
</linearGradient>
<linearGradient id="paint3_linear_1_6430" x1="33.0426" y1="24.2868" x2="1.2512" y2="-5.66093" gradientUnits="userSpaceOnUse">
<stop stop-color="#FF3A44"/>
<stop offset="1" stop-color="#C31162"/>
</linearGradient>
<linearGradient id="paint4_linear_1_6430" x1="9.93403" y1="55.2508" x2="24.1347" y2="41.8782" gradientUnits="userSpaceOnUse">
<stop stop-color="#32A071"/>
<stop offset="0.0685" stop-color="#2DA771"/>
<stop offset="0.4762" stop-color="#15CF74"/>
<stop offset="0.8009" stop-color="#06E775"/>
<stop offset="1" stop-color="#00F076"/>
</linearGradient>
</defs>
</svg>
