<svg width="17" height="17" viewBox="0 0 17 17" fill="none" xmlns="http://www.w3.org/2000/svg">
<path d="M4.83398 13.771C5.93855 13.771 6.83398 12.8756 6.83398 11.771C6.83398 10.6664 5.93855 9.771 4.83398 9.771C3.72941 9.771 2.83398 10.6664 2.83398 11.771C2.83398 12.8756 3.72941 13.771 4.83398 13.771Z" stroke="url(#paint0_radial_0_4345)" stroke-linecap="round" stroke-linejoin="round"/>
<path d="M11.501 13.771C12.6055 13.771 13.501 12.8756 13.501 11.771C13.501 10.6664 12.6055 9.771 11.501 9.771C10.3964 9.771 9.50098 10.6664 9.50098 11.771C9.50098 12.8756 10.3964 13.771 11.501 13.771Z" stroke="url(#paint1_radial_0_4345)" stroke-linecap="round" stroke-linejoin="round"/>
<path d="M6.83398 11.7709V3.10425H13.5007V11.7709M6.83398 5.77091H13.5007" stroke="url(#paint2_radial_0_4345)" stroke-linecap="round" stroke-linejoin="round"/>
<defs>
<radialGradient id="paint0_radial_0_4345" cx="0" cy="0" r="1" gradientUnits="userSpaceOnUse" gradientTransform="translate(6.83398 13.271) rotate(-143.913) scale(4.66888 10.5322)">
<stop stop-color="#70C270"/>
<stop offset="1" stop-color="#269ED9"/>
</radialGradient>
<radialGradient id="paint1_radial_0_4345" cx="0" cy="0" r="1" gradientUnits="userSpaceOnUse" gradientTransform="translate(13.501 13.271) rotate(-143.913) scale(4.66888 10.5322)">
<stop stop-color="#70C270"/>
<stop offset="1" stop-color="#269ED9"/>
</radialGradient>
<radialGradient id="paint2_radial_0_4345" cx="0" cy="0" r="1" gradientUnits="userSpaceOnUse" gradientTransform="translate(13.5007 10.6876) rotate(-136.544) scale(8.6629 20.4979)">
<stop stop-color="#70C270"/>
<stop offset="1" stop-color="#269ED9"/>
</radialGradient>
</defs>
</svg>
