<svg width="17" height="17" viewBox="0 0 17 17" fill="none" xmlns="http://www.w3.org/2000/svg">
<path d="M4.16699 13.7708C5.27156 13.7708 6.16699 12.8753 6.16699 11.7708C6.16699 10.6662 5.27156 9.77075 4.16699 9.77075C3.06242 9.77075 2.16699 10.6662 2.16699 11.7708C2.16699 12.8753 3.06242 13.7708 4.16699 13.7708Z" stroke="url(#paint0_radial_0_4376)" stroke-linecap="round" stroke-linejoin="round"/>
<path d="M9.78033 10.0708C9.52384 10.2299 9.30669 10.445 9.14515 10.7C8.98362 10.9549 8.88188 11.2432 8.84756 11.543C8.81325 11.8429 8.84725 12.1466 8.94701 12.4315C9.04678 12.7163 9.20973 12.9749 9.42364 13.1879C9.63755 13.4008 9.89688 13.5625 10.1822 13.661C10.4675 13.7595 10.7714 13.7921 11.0711 13.7564C11.3708 13.7207 11.6586 13.6176 11.9128 13.4549C12.167 13.2922 12.3811 13.074 12.539 12.8168M6.16699 11.7708V6.4375M6.16699 3.77083V3.10417H12.8337V10.4375M8.16699 5.77083H12.8337M2.16699 2.4375L14.167 14.4375" stroke="url(#paint1_radial_0_4376)" stroke-linecap="round" stroke-linejoin="round"/>
<defs>
<radialGradient id="paint0_radial_0_4376" cx="0" cy="0" r="1" gradientUnits="userSpaceOnUse" gradientTransform="translate(6.16699 13.2708) rotate(-143.913) scale(4.66888 10.5322)">
<stop stop-color="#70C270"/>
<stop offset="1" stop-color="#269ED9"/>
</radialGradient>
<radialGradient id="paint1_radial_0_4376" cx="0" cy="0" r="1" gradientUnits="userSpaceOnUse" gradientTransform="translate(14.167 12.9375) rotate(-143.913) scale(14.0066 31.5967)">
<stop stop-color="#70C270"/>
<stop offset="1" stop-color="#269ED9"/>
</radialGradient>
</defs>
</svg>
