<?xml version="1.0" encoding="utf-8"?><svg viewBox="0 0 35 35" xmlns="http://www.w3.org/2000/svg" xmlns:xlink="http://www.w3.org/1999/xlink"><style>:root>svg{display:none}:root>svg:target{display:block}</style><svg viewBox="0 0 35 35" id="icon-tg" xmlns="http://www.w3.org/2000/svg"><path d="M32.029 3.995a.684.684 0 00-.698-.12L3.624 14.72a1.398 1.398 0 00.24 2.674l7.62 1.496v8.454a1.64 1.64 0 002.82 1.138l3.827-3.965 5.88 5.156a1.64 1.64 0 002.683-.863l5.554-24.145a.683.683 0 00-.22-.67zM3.828 16.048a.291.291 0 01.194-.31L27.9 6.392 11.904 17.856 4.075 16.32a.29.29 0 01-.247-.272zm9.689 11.673a.546.546 0 01-.94-.378v-7.697l4.728 4.143-3.788 3.932zm12.11.84a.548.548 0 01-.898.285L12.91 18.48 30.916 5.578 25.628 28.56z"/></svg><svg viewBox="0 0 35 35" id="icon-what" xmlns="http://www.w3.org/2000/svg"><path d="M25.4 20.292l-4.374-2.188a.547.547 0 00-.547.035l-2.275 1.517a6.093 6.093 0 01-2.86-2.859l1.519-2.275a.547.547 0 00.034-.547L14.709 9.6a.547.547 0 00-.49-.303 4.922 4.922 0 00-4.923 4.922 11.496 11.496 0 0011.485 11.484 4.922 4.922 0 004.922-4.922.546.546 0 00-.302-.49zm-4.62 4.317a10.402 10.402 0 01-10.39-10.39 3.828 3.828 0 013.497-3.815l1.887 3.775-1.504 2.261a.547.547 0 00-.052.513 7.168 7.168 0 003.829 3.828.548.548 0 00.514-.05l2.26-1.504 3.776 1.886a3.828 3.828 0 01-3.816 3.496zM17.5 3.83a13.672 13.672 0 00-11.96 20.3l-1.626 4.88a1.64 1.64 0 002.075 2.075l4.88-1.627a13.67 13.67 0 0020.018-14.712A13.672 13.672 0 0017.5 3.828zm0 26.25c-2.212 0-4.384-.583-6.299-1.69a.554.554 0 00-.447-.044l-5.11 1.703a.547.547 0 01-.692-.692l1.703-5.11a.547.547 0 00-.045-.447 12.578 12.578 0 1110.89 6.28z"/></svg></svg>