<?xml version="1.0" encoding="utf-8"?><svg xmlns="http://www.w3.org/2000/svg" xmlns:xlink="http://www.w3.org/1999/xlink"><symbol viewBox="0 0 306 306" xml:space="preserve" id="arrow" xmlns="http://www.w3.org/2000/svg"><path d="M94.3 0 58.7 35.7 175.9 153 58.7 270.3 94.3 306l153.1-153z"/></symbol><symbol viewBox="0 0 78.8 78.8" xml:space="preserve" id="arrow_photo" xmlns="http://www.w3.org/2000/svg"><path d="M50.8 78.8C40.9 70 36.6 55 34.7 42.4c-1.3-9.3-1.7-19.4.2-28.9.8 3 2.2 5.9 3.8 8.4.9 1.3 4.6.4 5.1 1.3C39.6 17.4 37.5.4 37.5.4s-3-.6-3.1-.3c-.7 1.1-5.9 9.1-6.3 9.6-2.5 2.9-5.1 5.7-8.6 7.7.6-.3 3.4 1.6 4.4 1.2 2.1-.7 3.7-1.9 5.2-3.4-1.2 8.8-.1 18.3 1.5 26.4 2.5 12.8 7.2 28 17.6 36.7.8.4 2.1 0 2.6.5z"/></symbol><symbol viewBox="0 0 306 306" xml:space="preserve" id="arrow_up" xmlns="http://www.w3.org/2000/svg"><path d="M94.3 0 58.7 35.7 175.9 153 58.7 270.3 94.3 306l153.1-153z"/></symbol><symbol viewBox="0 0 250 250" xml:space="preserve" id="bag" xmlns="http://www.w3.org/2000/svg"><path d="m246 201.5-.4-.6-.6-.5c-4.5-3.6-10.3-8-12.5-9.4-.9-1.5-3.9-8.7-6-15.9-1.7-5.8-7.1-13.8-9-16.5-.1-1-.3-3.6.2-8.9.8-8.3-3.6-48.9-4.8-59.3l1-.5 2.4-5.6c1.8-2.7 3.5-9 1.2-24.3-.5-3.7-1-6.8-1.4-9.6-1.7-12.6-2.4-17.3-5.9-20-4-3.1-25.4-9.7-31.7-10.4-1-.1-2.4-.2-3.9-.2-9.2 0-26.2 2.4-30.3 3.2 0 0-.6.1-2.7.1-4.5 0-12.5-.4-21-.8-9.7-.5-19.6-.9-26.2-.9-1.6 0-2.9 0-3.9.1-4.8.2-29.3 1-35.2 2.9-6.1 1.9-15.4 4.4-16.6 4.5-1.6 0-3 .3-18.1 13.5l-1.3 1.1-.2 1.7C16.6 72 16.8 73.7 17 74.5c.1.5.3 2.2.4 3.2v.2c2.1 19.3 2.9 21.9 6.9 22.5.8.1 4.1 1.1 7.4 2.2-4 10.3-10.2 26.9-10.2 32.3 0 6.4 1.4 21.7 2.3 25.4.4 1.7 1.4 3.4 2.4 5.2 1.5 2.6 2.2 4.2 2.3 4.9-2.9 3.6-4.2 11.1-4.7 15.7C8.6 196.5.5 204.1-.3 208.6c-1.3 7.5 4 12.5 4.3 12.7l.8.7 1 .3c.2.1 5.4 1.4 12.5 1.9 4.6.3 13.8-.5 21.1-1.2h.1c3.3-.3 6.8-.6 7.8-.6.8 0 5.8 1.3 8.8 2.1 9.9 2.6 23.6 6.1 31.9 6.1 1.3 0 2.5-.1 3.6-.3 6.7-1.2 30.2-1.6 47.3-1.8 6.1-.1 12.5-.2 16.4-.3 12.3-.4 25.5-3.9 29.3-5l1.9-.4c4.1-.8 17.3 2.8 25.3 5.6l.8.3h.8c23.2-1.4 24.5-1.8 25.1-2 3.7-1.2 9.2-9.8 9.9-11.2 2.9-4.4-.4-10.7-2.4-14zM116.4 40l.7 1 1.2.1c.3 0 .7.1 1 .1 2.2 0 3.4-1.1 4-1.9l1.8-2.7c4.6.5 9.2 1.3 12.4 1.8 3.4.6 4.8.8 5.7.8.5 0 .9.1 1.9.4 1.2.4 2.7.9 5.3 1.4 4.1.8 12.3 2.1 14.8 2.6l-1.3 3.9c-2.9 2.2-4.9 3.9-6.1 5.2-1.2 1.3-2.1 2.9-2.8 4.8h-4.1c-1.6 0-10.2-.4-14.8-.7l.3-.3c1.2-1.3 1.3-3.1.3-4.5-.8-1.1-2.5-2-4.8-1.2-1.3.3-2.5 1.4-2.5 3.5l-.2 1.8.7.4-1.1 2.9c-1.3-.3-2.6-.5-4-.5-2.7 0-18.5-1.5-27.5-2.4-2.2-.8-9-3-13.7-3.6-3.5-.4-6.5 1.3-8.6 2.4-2.5-4-8-6.9-12.2-8.6 1.2-1.6 2.7-3.5 4.2-4.7 3.6-3 13-4.6 18-5.1h4.6c-.2.3-.3.7-.3 1-.1.6-.2 2.4 1.9 3.7l.8.4.7.1h.6c2.9 0 4.2-1.8 4.4-3.4l.2-1.1-.5-.7c4.9-.1 10.3-.3 14.8-.8 1.2-.1 2.5-.2 3.9-.2v.1c-.8 1.2-.6 2.7.3 4zm58.5-11.9c1.2 0 2.1 0 2.8.1 2.1.3 5 1 8.3 1.9-1.1-.1-2.1-.1-3.1-.1-.8 0-1.9.1-3.1.4-.7.2-1.3.4-1.9.6l-1.2.5c-2.6 1.2-5.2 2.5-7.5 3.7l-2-.1c-1-.2-10.7-1.8-15.1-2.6-2-.4-3.2-.8-4.2-1.1-.4-.1-.8-.3-1.2-.4 4.7-.8 19.8-2.9 28.2-2.9zM61.7 35.4c-2.1 1.8-5.6 5.8-7.5 9.1-2 .9-3.9 1.9-5.9 2.8-2.1 1-4.6 2.3-7.1 3.7l-.4.2c-.4.3-1 .6-1.7 1.1-.8.6-1.5 1.4-2.1 2.3-.8 1.3-1.4 2.8-1.9 4.7-.6 2.6-.7 5.4-.5 8.5l.1 1.4h5.6l.1-1.4c.2-2.5.6-4.7 1.3-6.6.4-1 .8-1.8 1.2-2.3.2-.3.4-.4.5-.4.1-.1.6-.3.9-.4l.4-.1c2.3-.9 4.7-1.7 7-2.5 1.8-.6 3.8-1.2 5.8-1.9 4.6 1.6 10.1 4.8 10.5 6.1.1.2.1.4.2.6L66.4 67h-.2l-2.7 25.2L73 70.5l3.8-6.5c.9-.4 1.7-.8 2.5-1.3 1.2-.6 2.7-1.5 3.5-1.4 4.5.5 12.3 3.3 12.4 3.3l.9.2h.2c4.1.4 25 2.5 28.8 2.5 1.4 0 2.5.3 3.3.7.2.5.4 1 .6 1.6.5 1.6 1 3.4 1.5 5.3l3.7 15.8 2-16.1c.3-2.2.4-4.2.5-6.1 0-1 .1-2.1 0-3.4 6.1.3 12.9.6 14.5.6h4.5l2.2.2h.1c.5.3 1 .7 1.6 1.2 1.1.9 2.3 1.8 3.5 2.9l9.9 9-5.3-12.3c-.7-1.7-1.5-3.2-2.2-4.7-.5-1-1-1.7-1.5-2.4-.1-.1-.2-.3-.3-.5.2-.5.5-.9.8-1.2.7-.8 2.5-2.3 4.9-4.1l1.2.4.3-.9c.7 0 1.3.1 1.8.1.2 0 .5.1.7.1l1.2.3c.7.2 1.5.4 2.3.7 1.1.4 2.6.9 3.7 1.8.4.3 1.2.9 1.2 1.7l-.7 28.6 6.4-27.9c.3-1.4.2-2.9-.3-4.3-.4-1.1-1.1-2.2-2.1-3.2-1.6-1.7-3.5-2.9-4.9-3.8-.9-.5-1.8-1-2.5-1.3l-1.3-.7c-.6-.3-1.1-.5-1.7-.7-.2-.1-.4-.1-.6-.2l.5-1.5c2-1.5 4.2-3.3 6.4-4.9l1-.7.4-.2c.4-.2 1-.4 1.7-.6 1.3-.3 2.7-.6 4.3-.7l12.5-1.1c3.7 1.4 4.4 1.9 4.4 1.9.9 1 1.8 7.9 2.7 14.5l.1.4c.4 2.7.8 5.8 1.3 9.3 1.8 12.6.6 17.2.2 18.2l-.3.2-.7 1.5-1.2 2.7C203.1 86 186.3 95.4 182 97c-.9.4-3.5.8-7.7.8-6.3 0-12.7-.8-13.7-1.1-.7-.2-1.4-.3-2.2-.3-3 0-7.4 1.5-11.4 2.9-.7.3-2.6.9-3.1 1-.8 0-2.5.2-8.1.8-9 .9-24.2 2.5-28.4 2.5h-.4c-.7-.1-3.3-.5-17.9-.5-8.8 0-17.9.1-20.9.3H68c-5.2 0-24.6-6-26.6-6.9-2.3-1.4-10.3-3.7-12.9-4.5-.4-1.9-1.1-6.1-2.1-15.6-.3-2.5-.4-3.5-.5-4 0-1.9.9-12.8 2-25.3 6.1-5.3 11-9.3 12.6-10.4 3.5-.6 13.4-3.4 17.7-4.8 1.7-.5 7.1-1.1 13.7-1.5-3.8 1.3-7.6 2.8-10.2 5zm124.7 178.3-.6.2c-3.1 1.1-18.1 5.2-30.2 5.6-3.8.1-9.8.2-16.2.3-18.4.3-41.3.6-48.7 2-3.5.6-12-.7-25.3-4l.1-.3-3-.7c-.3-.1-.9-.3-1.6-.9-.7-.5-1.4-1.2-2.3-2-1.4-1.4-2.7-3.1-4.4-5.2-2.7-3.6-5.2-7.5-7.7-11.9l-.7-1.2-5 2.6.6 1.3c2.2 4.9 4.5 9.2 6.9 13.3.2.4.5.8.7 1.2-.4-.1-.7-.1-1-.1-1.4 0-4.6.3-8.7.6h-.2c-6.3.6-15.7 1.4-19.7 1.1-4.3-.3-7.9-1-9.6-1.3-.6-.9-1.4-2.4-1.1-4.3.6-1.5 8.7-9 22.2-18.1l1.7-1.2.1-1.3 2.8-11.9c1.2.8 2.5 1.6 4 2.5 1.8 1 3.8 1.9 5.7 2.7 1 .4 2 .8 3 1.1l.5.2c.9.3 1.9.6 3 .8l1.4.2 1-5.5-1.3-.3c-.5-.1-1.1-.4-1.8-.7l-.4-.2c-.8-.4-1.6-.8-2.5-1.3-1.6-.9-3.2-1.9-4.7-3-1.7-1.2-3-2.3-4.2-3.4-.6-.6-1.1-1.2-1.4-1.7-.1-.1-.2-.2-.2-.3v-.1l-.9-20.9-2.9 12.6c-.5-.9-.9-1.7-1-2.1-.8-3.1-2.1-17.8-2.1-23.4 0-3.1 4.7-16.8 9.6-29.2 6.8 2.4 22.5 6.8 27.8 6.8h.6c2.8-.1 12-.3 20.5-.3 14.4 0 16.3.3 16.3.3.5.1 1.1.1 1.9.1 4.7 0 19.5-1.5 29.3-2.6h.2c2.4-.3 6.9-.7 7.3-.7 1.2 0 2.3-.4 5.6-1.5 2.1-.7 6.8-2.4 8.5-2.4 2.8.8 10.2 1.5 16 1.5 4.9 0 8.5-.4 10.8-1.3 3.4-1.3 12.4-6.2 20-10.4 2.5 22.9 4.9 48.5 4.4 53.9-.3 3.3-.5 6.1-.4 8.4-1 2.7-2.1 5.3-3.2 7.8-1.2 2.5-2.5 5.2-4.1 7.3-.4.5-.7.8-1 1-.6.4-1.1.8-1.7 1.2-1.1.7-2.3 1.5-3.8 2.4-1.3.8-2.6 1.5-3.9 2.2l-.8.4c-1 .6-2 1.1-3 1.4l-1.3.5 1.7 5.4 1.3-.4c1.4-.4 2.7-1 3.9-1.5l.8-.4c1.4-.6 2.9-1.3 4.3-2.1 1.6-.8 3-1.5 4.2-2.3.8-.5 1.5-.9 2.1-1.3.8-.5 1.6-1.2 2.5-2.1 2.3-2.6 3.9-5.3 5.7-8.4.2-.3.4-.7.6-1 1.9 3 4.3 7.1 5.1 10 2 7 5.9 18.9 9.7 20.8.6.3 4.9 3.5 11.1 8.4 1.4 2.4 2.1 4.5 2.2 5.2-1.2 2.1-4 5.4-5 6.5-2.6.3-11.9.9-21.8 1.5-2.3-.8-8.6-2.8-14.9-4.3 1.3-1.2 2.3-2.4 3.1-3.7.4-.7.8-1.4 1.1-2.2l.6-1.6c.4-1 .7-2 1.2-3.1.9-2.2 1.9-4.1 2.9-6l.7-1.2-4.8-3-.8 1.1c-1.3 1.9-2.6 3.9-3.8 6.2-.6 1.2-1.2 2.2-1.7 3.3l-.7 1.5c-.1.3-.3.6-.6.9-.9 1.2-2.2 2.2-4.2 3.2-.8.4-1.7.8-2.8 1.3-.3.1-.5.2-.8.3l-.1-.3-2.7 1.5zm2.5.6zM40 221.4z"/><path d="m80.9 43.8-5.3-.2-.2.5h-1.5l.2 3.1c.1 1.7 1.4 3.6 4.6 3.6h1.5l.8-1c0-.1.1-.1.2-.2 1.7-1.8 1.2-3.5.5-4.6l-.8-1.2zm8.5 2.5c-1.4-.9-3.2-1.1-4.7-.3-1.2.6-2 1.8-2.1 3-.1 1.3.6 2.5 1.8 3.2l.6.4.7.1h.6c1.4 0 2.5-.4 3.4-1.2.8-.8 1.2-1.9 1.1-3l-.1-1.4-1.3-.8z"/></symbol><symbol viewBox="0 0 24 24" id="card-arrow" xmlns="http://www.w3.org/2000/svg"><g clip-path="url(#ea)"><path d="M0 12.756h21.106l-4.757 4.757 1.069 1.07L24 12l-6.582-6.582-1.07 1.069 4.758 4.757H0v1.512Z"/></g><defs><clipPath id="ea"><path transform="rotate(-180 12 12)" d="M0 0h24v24H0z"/></clipPath></defs></symbol><symbol viewBox="0 0 250 250" id="left" xmlns="http://www.w3.org/2000/svg"><path d="m46.4 125.038 16-16 109-109 32.2 32.1-92.9 92.9 92.9 92.9-32.2 32.1-109-109-16-16z"/></symbol><symbol viewBox="0 0 30 30" id="left-arrow" xmlns="http://www.w3.org/2000/svg"><path d="M27 15.804H5.894l4.757 5.06L9.582 22 3 15l6.582-7 1.07 1.137-4.758 5.06H27v1.607Z"/></symbol><symbol viewBox="0 0 250 250" id="oil" xmlns="http://www.w3.org/2000/svg"><path d="M204 176.9c0-3.6-.3-8.6-1.4-14.5-2.1-11.5-6.1-19.7-8.4-24.1-3.2-6-7.1-12.2-12.5-19.3-2.5-3.3-5.1-6.7-7.6-9.9-1.8-2.2-3.5-4.5-5.2-6.7-3.6-4.6-7.3-9.7-10.3-15l-.5-.9c-.7-1.3-1.4-2.5-1.8-3.7-2.6-8.1-4.1-14.8-4.9-21.2-.1-1-.2-2-.3-3.2.3 0 .6 0 .9-.1 2.9-.3 5.2-2.3 5.9-5.1.4-1.6.4-3.2-.1-4.7-.7-2.7-2.6-4.7-5.2-5.5 1-4.6 2.1-8.9 3.5-12.8 1.2-3.6 2.5-6.2 4.2-8.3 1-1.3 2.1-2.7 3.1-4 .7-.9 1.4-1.8 2.1-2.6 1-1.3 2.2-2.8 3.1-4.4.5-.9.8-1.7 1-2.5.4-1.8-.1-3.5-1.4-4.8-.8-.8-1.5-1.2-2.5-1.6-2.3-1.1-4.8-1.4-4.8-1.4-1.6-.3-2.8-.3-3.7-.3-1.4 0-3.3 0-5.5.2-4.3.5-8 1.4-11.3 3-4.8 2.3-10.1 4.5-15.7 6.3-5.1 1.7-10.7 3.4-16.3 4-2.2.2-4 .1-5.7-.4-3.8-1.2-8.4-2.5-13.1-3.2-5.8-1.2-10.8-1.3-15.4-.4-6.5 1.2-11.9 4.2-16 8.8-5.6 6.3-8.8 14-9.4 23-.3 4.2.1 8.6 1.1 13 1.4 6.2 3.8 12.3 7.3 18.2 4.1 7 8.9 12.7 14.6 17.4 2.1 1.7 4 3.9 5.7 6.3 1.2 1.9 2.1 3.6 2.5 5.3.3 1.2.2 2.2-.3 3.2-.9 1.7-1.9 3.3-3 4.9-1.4 2-2.7 3.9-4.1 5.9-1.9 2.6-3.7 5.3-5.6 8-8.3 12-13.1 22.6-13.1 22.6-2.8 6.3-6.4 16.2-7.7 29.6 0 3.1 0 6.3.1 9.4.2 4.6.9 11.3 3.5 19 1.7 5 5 14.8 13.8 24 5.3 5.6 11.9 10.1 19.6 13.6 6 2.7 12.5 4.6 19.9 6 5.5 1 11.3 1.6 17.4 1.9 2.3.1 4.7.1 7.2.1 2.3 0 4.6 0 6.8-.1 11.8-.1 21-2.4 27-4.2 7.1-2.1 13.1-5 18.4-8.9 7.8-5.6 13.7-13.1 17.6-22.3 2.7-6.4 3.8-11.7 4.8-17.1.4-1.9 1-5.8 1.5-10.9.1-3.6.2-6.9.2-9.6zm-150.6 0c.1-5.4 1.1-10.8 2.8-16.7 1.9-6.4 4.8-13 8.8-20.1 3.9-6.9 8.5-13.5 12.6-19.2l1.2-1.6c2.1-2.9 4.2-5.9 6.1-9 .2-.3.4-.6.5-1 .1-.2.2-.5.4-.7 1.5-2.7 1.9-5.7 1-9-.7-2.7-2-5.4-3.9-8-2-2.8-4.4-5.4-7.2-7.7-3.6-3-6.8-6.6-9.9-11.1-4.2-6.1-7-12.2-8.6-18.7-1.1-4.5-1.5-8.6-1.1-12.8.6-6.6 2.9-12.4 6.8-17.1 3.4-4.1 7.7-6.5 13.2-7.4 1.6-.3 3.3-.4 5.1-.4 2.3 0 4.8.2 7.5.7 3.4.6 7.1 1.5 11.5 2.9 3 .9 6.2 1.2 9.9.7 7.5-1 14.7-3.4 20.7-5.6 4.4-1.6 8.6-3.4 12.7-5.3 2.5-1.2 5.4-2 8.7-2.3 3.2-.3 6.1-.2 8.8.4.2 0 .5.1.7.2-.1.2-.3.4-.4.6-1.4 1.9-2.9 3.8-4.4 5.6-3.7 4.3-6.4 9.3-8.2 15.2-1.5 4.8-2.5 8.8-3.2 12.5-2.2-.2-4.6-.4-7-.5-4.9-.3-10-.6-15.2-.4-3.1.1-6.4.3-10.3.7-2.1.2-4 .4-5.9.6-1-4.5-2.6-8.2-4.7-11.4-3.1-4.6-7.2-7.6-12.3-8.8-10.5-2.5-20.8 2.3-25.5 12-3 6.2-3.4 12.9-1.2 20 .9 2.8 2.1 5.5 3.7 7.9 3.6 5.4 7.3 9.8 11.5 13.4 3 2.7 5.8 4.4 8.8 5.5 1.9.7 3.7 1 5.4 1 1.7 0 3.3-.5 4.7-1.4 4-2.4 6.9-6 8.6-10.6 1-2.7 1.7-5.8 2-9.3.1-1 .2-2 .2-2.9.7-.1 1.5-.1 2.2-.2 1.2-.1 2.5-.2 3.7-.3 2-.2 4.1-.3 6.1-.5l2.8-.2c2.6-.2 5.3-.2 8.9 0 2.9.1 6 .4 9.3.7.8.1 1.7.2 2.5.2.1 5.6 1.2 11.1 2.4 16.2.7 3.2 1.6 6.3 2.5 9.4.6 2.2 1.6 4.4 2.9 6.7 2.7 4.9 6 9.9 10.8 16.2 1.9 2.5 3.9 5 5.9 7.5 2.4 3.1 4.8 6.1 7.2 9.2 4.9 6.3 8.7 12.2 11.7 17.8 4 7.3 6.6 14.4 8 21.6 1 5 1.4 10.1 1.3 15.6-.1 5.5-.4 10-.9 14.2-1 8.3-2.8 15-5.6 21.1-4.7 10.3-12.1 17.7-22.6 22.6-5.2 2.4-10.9 4.2-17.5 5.4-7 1.3-14.5 1.9-23.6 1.9-3.8 0-8.3-.2-12.7-.6-9.7-.9-18-2.8-25.4-5.8-7.5-3-13.6-6.9-18.7-12-6.1-6-10.3-13.3-13.1-22.1-1.4-4.5-2.3-9.1-2.8-14.2-.2-3.9-.3-7.7-.2-11.3zM96.1 55.3c1.1 1.7 2.8 2.7 4.8 2.9-.2 3.1-.6 5.7-1.4 8.1-.9 2.6-2 4.7-3.6 6.2-.4.4-.9.8-1.5 1.2l-.4.5c-.5.4-1.2.7-2.7.4-1.3-.3-2.7-.8-4.3-1.8-2.1-1.3-4.1-2.9-6.1-5-3.7-3.8-6.4-7.2-8.4-10.7-2.3-3.9-3.3-7.8-3.3-11.8.1-5.2 1.9-9.3 5.4-12.6 2.6-2.4 5.7-3.6 9.4-3.8h.6c3.3 0 6 .9 8.3 2.7 1.6 1.2 2.9 2.7 4 4.8 1.2 2.1 2.1 4.6 2.8 7.4-2 .7-3.4 2.1-4.3 4-1 2.3-.8 5.2.7 7.5zm54.7-4.2s0-.1 0 0c-.5-.1-.9-.1-1.4-.2-.6-.1-1.2-.2-1.7-.3-2.4-.3-5-.6-8.1-.9-3.4-.3-7.5-.6-11.5-.6h-.6c-3.2 0-6.4.3-9.5.5h-.1l-6.9.6-3.5.3c-1.8.2-3.6.3-5.3.5v-.5c.1-.1.2-.2.5-.2 5.6-.7 10.1-1.2 14.3-1.6 3.2-.2 6.4-.4 8-.4 7.3 0 12.8.4 17.2.7.8.1 1.6.1 2.4.2 1.7.1 3.4.3 5.2.4.3 0 .7.1.9.3.1.3.2.7.1 1.2z"/><path d="M61 202.8c4.3 11.8 11.8 21.1 22.2 27.6 6.1 3.8 12.9 6.5 20.8 8.3 6.9 1.5 14.2 2.3 22.3 2.3h.3c6.5 0 12.6-.5 18.4-1.5 6.2-1.1 11.7-2.7 16.8-5 13.5-6 22.8-16 27.7-29.5 2.1-5.8 3.3-12 3.7-19 .4-6.9 0-13.8-1.1-20.3-1.7-9.4-4.8-18.6-9.3-27.2-4.5-8.6-9.7-16-15.9-22.3-.8-.9-1.8-1.7-2.8-2.4-2.8-1.9-6-2.9-9.9-3.2-1.2-.1-2.3-.1-3.5 0-2.1.1-4 .9-5.9 2.4l-1.5 1.2c-.5.4-1.1.9-1.6 1.3-1.2.9-2.7 1.4-4.4 1.5-1.7 0-3.4-.4-5.2-1.5-.7-.4-1.3-.8-2-1.2-.6-.4-1.1-.7-1.7-1.1-4.4-2.7-9.3-3.3-14.5-1.9-2.5.7-4.7 1.8-6.7 2.7l-.2.1c-1.2.6-2.4 1.1-3.5 1.5-.8.3-1.7.3-2.6.1-2.9-.5-6.1-1-9.5-.9-4 .2-7.2 1.7-9.6 4.5-9.3 10.9-16.3 22.7-20.7 35-2.7 7.6-4.2 15.3-4.4 22.9-.1 2.8.1 5.8.5 9.6.8 5.7 2 11 3.8 16zm26.6-79c1-1.1 2.2-1.7 3.9-1.8 2.4-.2 4.8.1 6.7.4.3 0 .6.1.9.2l1.5.3c1.9.3 3.8 0 5.9-.7 1.4-.5 2.7-1.1 4-1.7l.5-.2c2-.9 3.7-1.7 5.6-2.2 2.9-.7 5.4-.4 7.8 1 .8.5 1.6 1 2.5 1.5.5.3 1.1.7 1.6 1 3 1.8 6 2.6 9.2 2.5 3.2-.1 6-1.1 8.3-2.8 1-.8 2-1.5 2.8-2.2 1.2-1 2.4-1.4 3.9-1.3 1.7.1 3.8.3 5.6 1.1 1.4.6 2.6 1.4 3.7 2.6 11.4 12.1 18.9 26.5 22.5 42.7 1.3 5.7 1.8 11.7 1.7 17.8-.1 7.7-1.2 14.4-3.4 20.4-4 11.2-11.6 19.6-22.5 24.8-4.8 2.3-10 4-16 5-5.7 1-11.6 1.5-17.6 1.5-7.1.1-13.5-.6-19.7-1.8-8.2-1.7-15-4.4-21-8.4-9-6-15.4-14.5-18.9-25.3-1.3-4.1-2.2-8.6-2.7-13.5-.4-3.9-.4-7.6-.1-11.1.4-4.6 1.4-9.4 2.9-14.1 2.7-8.7 6.9-17 12.7-25.5 2.3-3.6 4.9-7 7.7-10.2z"/></symbol><symbol viewBox="0 0 512 512" xml:space="preserve" id="photo" xmlns="http://www.w3.org/2000/svg"><circle cx="256" cy="277.3" r="106.7"/><path d="M469.3 106.7h-67.7c-8.6 0-16.6-3.3-22.6-9.4l-39-39c-10.1-10.1-23.5-15.6-37.7-15.6h-92.6c-14.3 0-27.6 5.6-37.7 15.6l-39 39c-6.1 6-14.1 9.4-22.6 9.4H42.7C19.1 106.7 0 125.8 0 149.3v277.3c0 23.5 19.1 42.7 42.7 42.7h426.7c23.5 0 42.7-19.1 42.7-42.7V149.3c-.1-23.5-19.2-42.6-42.8-42.6zM256 405.3c-70.6 0-128-57.4-128-128s57.4-128 128-128 128 57.4 128 128-57.4 128-128 128zm170.7-192c-11.8 0-21.3-9.6-21.3-21.3s9.6-21.3 21.3-21.3S448 180.2 448 192s-9.6 21.3-21.3 21.3z"/></symbol><symbol viewBox="0 0 30 30" id="play-button" xmlns="http://www.w3.org/2000/svg"><path d="M15 0C6.716 0 0 6.716 0 15c0 8.284 6.716 15 15 15 8.284 0 15-6.716 15-15C29.99 6.72 23.28.009 15 0Zm6.317 15.478a1.07 1.07 0 0 1-.481.48v.006l-8.571 4.286a1.072 1.072 0 0 1-1.55-.964v-8.572a1.071 1.071 0 0 1 1.55-.959l8.571 4.286c.53.264.745.907.481 1.437Z"/></symbol><symbol viewBox="0 0 250 250" id="right" xmlns="http://www.w3.org/2000/svg"><path d="m203.6 125.038-16 16-109 109-32.2-32.1 92.9-92.9-92.9-92.9L78.6.038l109 109 16 16z"/></symbol><symbol viewBox="0 0 30 30" id="right-arrow" xmlns="http://www.w3.org/2000/svg"><path d="M3 14.196h21.106l-4.757-5.06L20.418 8 27 15l-6.582 7-1.07-1.137 4.758-5.06H3v-1.607Z"/></symbol><symbol viewBox="0 0 477.9 477.9" xml:space="preserve" id="star_fill" xmlns="http://www.w3.org/2000/svg"><path d="M469.1 170.1c-5.5-6.1-12.9-10.1-21.1-11.2l-127-17.5-50.2-120.2c-7.3-17.6-27.5-25.9-45.1-18.5-8.4 3.5-15 10.2-18.5 18.5l-50.3 120.1-127 17.5C11 161.4-2.2 178.9.4 197.8c1.1 8.1 5.1 15.6 11.2 21.1l95.7 85.3-19.7 134c-2.1 13.6 4.1 27.1 15.8 34.4 11.6 7.4 26.4 7.1 37.7-.7l97.8-66.5 97.8 66.6c15.8 10.7 37.2 6.6 48-9.2 4.9-7.2 6.9-15.9 5.6-24.5l-19.7-134 95.7-85.3c14.3-12.7 15.5-34.6 2.8-48.9z"/></symbol></svg>