<svg width="177" height="54" viewBox="0 0 177 54" fill="none" xmlns="http://www.w3.org/2000/svg">
<path d="M176.07 48.1872C176.07 51.1224 173.805 53.5 171.002 53.5H5.14507C2.34398 53.5 0.0703125 51.1224 0.0703125 48.1872V5.8197C0.0703125 2.88589 2.34398 0.5 5.14507 0.5H171.001C173.805 0.5 176.069 2.88589 176.069 5.8197L176.07 48.1872Z" fill="url(#paint0_radial_1_6400)"/>
<path d="M39.4567 26.1129C39.4176 21.6912 43.0167 19.54 43.1813 19.4399C41.143 16.4175 37.9836 16.0046 36.8734 15.9716C34.2199 15.6877 31.646 17.5864 30.2943 17.5864C28.9156 17.5864 26.8341 15.9991 24.5907 16.0457C21.7039 16.091 19.0032 17.7908 17.522 20.4304C14.4651 25.8125 16.7449 33.7216 19.6736 38.072C21.1386 40.2026 22.8505 42.5815 25.0912 42.4978C27.2833 42.4059 28.1022 41.0765 30.7476 41.0765C33.3687 41.0765 34.1376 42.4978 36.4228 42.4443C38.7755 42.4059 40.2567 40.3041 41.6704 38.1543C43.3634 35.7123 44.0433 33.3073 44.0703 33.1838C44.015 33.1646 39.5012 31.4127 39.4567 26.1129Z" fill="#F5FAFE"/>
<path d="M35.1399 13.1098C36.319 11.6103 37.1257 9.57024 36.9017 7.5C35.1952 7.57683 33.0611 8.70044 31.8322 10.167C30.7449 11.4594 29.7736 13.5776 30.0245 15.5697C31.9414 15.7151 33.9096 14.586 35.1399 13.1098Z" fill="#F5FAFE"/>
<path d="M70.0703 42.5H67.0383L65.3774 36.9191H59.6044L58.0222 42.5H55.0703L60.7899 23.5H64.3226L70.0703 42.5ZM64.8767 34.5776L63.3747 29.6163C63.2158 29.1095 62.9181 27.9159 62.4789 26.037H62.4255C62.2506 26.8451 61.9688 28.0387 61.5817 29.6163L60.1064 34.5776H64.8767Z" fill="#F5FAFE"/>
<path d="M84.0703 35.2622C84.0703 37.5251 83.4976 39.3138 82.3523 40.6268C81.3265 41.7957 80.0526 42.3794 78.5319 42.3794C76.8906 42.3794 75.7115 41.7499 74.9934 40.4909H74.9414V47.5H72.1729V33.1533C72.1729 31.7307 72.1378 30.2706 72.0703 28.7732H74.5051L74.6596 30.8821H74.7116C75.6349 29.2931 77.036 28.5 78.9163 28.5C80.3863 28.5 81.6134 29.1198 82.5951 30.3608C83.5795 31.6031 84.0703 33.2365 84.0703 35.2622ZM81.2498 35.3704C81.2498 34.0753 80.9771 33.0077 80.4291 32.1674C79.8305 31.2911 79.0267 30.853 78.019 30.853C77.336 30.853 76.7153 31.097 76.1608 31.5782C75.605 32.0635 75.2414 32.6971 75.0713 33.4819C74.9856 33.848 74.9427 34.1474 74.9427 34.3832V36.6017C74.9427 37.5695 75.2206 38.3862 75.7764 39.0531C76.3322 39.72 77.0542 40.0528 77.9424 40.0528C78.9851 40.0528 79.7967 39.623 80.3772 38.7661C80.959 37.9078 81.2498 36.7764 81.2498 35.3704Z" fill="#F5FAFE"/>
<path d="M99.0703 35.2622C99.0703 37.5251 98.4976 39.3138 97.3508 40.6268C96.3262 41.7957 95.0521 42.3794 93.5314 42.3794C91.8898 42.3794 90.7106 41.7499 89.9937 40.4909H89.9417V47.5H87.1729V33.1533C87.1729 31.7307 87.1378 30.2706 87.0703 28.7732H89.5054L89.6599 30.8821H89.7119C90.6339 29.2931 92.0353 28.5 93.9171 28.5C95.3859 28.5 96.6132 29.1198 97.5976 30.3608C98.5781 31.6031 99.0703 33.2365 99.0703 35.2622ZM96.2495 35.3704C96.2495 34.0753 95.9755 33.0077 95.4275 32.1674C94.8288 31.2911 94.0275 30.853 93.0184 30.853C92.334 30.853 91.7145 31.097 91.1586 31.5782C90.6028 32.0635 90.2404 32.6971 90.0703 33.4819C89.9859 33.848 89.9417 34.1474 89.9417 34.3832V36.6017C89.9417 37.5695 90.2197 38.3862 90.7729 39.0531C91.3288 39.7186 92.0508 40.0528 92.9417 40.0528C93.9846 40.0528 94.7963 39.623 95.3768 38.7661C95.9586 37.9078 96.2495 36.7764 96.2495 35.3704Z" fill="#F5FAFE"/>
<path d="M116.07 37.051C116.07 38.6209 115.547 39.8982 114.495 40.8843C113.34 41.9619 111.732 42.5 109.666 42.5C107.758 42.5 106.228 42.1172 105.07 41.3503L105.729 38.8858C106.976 39.6708 108.344 40.0647 109.835 40.0647C110.905 40.0647 111.737 39.8123 112.336 39.3102C112.931 38.8082 113.228 38.1342 113.228 37.2937C113.228 36.5448 112.983 35.9138 112.492 35.402C112.003 34.8903 111.186 34.4146 110.045 33.975C106.941 32.7698 105.39 31.0043 105.39 28.6827C105.39 27.1655 105.934 25.9215 107.022 24.9534C108.107 23.984 109.554 23.5 111.363 23.5C112.977 23.5 114.317 23.7926 115.387 24.3765L114.677 26.7869C113.677 26.221 112.548 25.9381 111.283 25.9381C110.284 25.9381 109.503 26.1947 108.944 26.705C108.471 27.1613 108.233 27.7174 108.233 28.3762C108.233 29.1057 108.504 29.709 109.047 30.1833C109.52 30.6215 110.38 31.0958 111.627 31.6076C113.152 32.2469 114.273 32.9945 114.994 33.8515C115.712 34.7058 116.07 35.7751 116.07 37.051Z" fill="#F5FAFE"/>
<path d="M124.07 31.069H120.853V37.5701C120.853 39.2236 121.42 40.0497 122.556 40.0497C123.078 40.0497 123.51 40.0037 123.853 39.9116L123.933 42.1707C123.358 42.3898 122.601 42.5 121.664 42.5C120.511 42.5 119.61 42.1414 118.96 41.4256C118.313 40.7083 117.987 39.5055 117.987 37.8157V31.0662H116.07V28.8336H117.987V26.3819L120.853 25.5V28.8336H124.07V31.069Z" fill="#F5FAFE"/>
<path d="M138.07 35.3748C138.07 37.438 137.532 39.1318 136.457 40.4564C135.329 41.8202 133.833 42.5 131.968 42.5C130.17 42.5 128.739 41.8468 127.671 40.5404C126.604 39.2339 126.07 37.5848 126.07 35.5972C126.07 33.5173 126.619 31.8136 127.721 30.489C128.82 29.163 130.304 28.5 132.169 28.5C133.967 28.5 135.413 29.1532 136.505 30.461C137.549 31.7297 138.07 33.3676 138.07 35.3748ZM135.246 35.4713C135.246 34.2334 135.005 33.1718 134.516 32.2864C133.945 31.215 133.129 30.6806 132.072 30.6806C130.978 30.6806 130.147 31.2164 129.576 32.2864C129.087 33.1732 128.846 34.2516 128.846 35.5273C128.846 36.7652 129.087 37.8268 129.576 38.7108C130.165 39.7822 130.987 40.3166 132.048 40.3166C133.087 40.3166 133.903 39.7711 134.492 38.6828C134.993 37.7806 135.246 36.7078 135.246 35.4713Z" fill="#F5FAFE"/>
<path d="M148.07 31.4621C147.783 31.4064 147.476 31.3778 147.154 31.3778C146.131 31.3778 145.341 31.7823 144.784 32.5929C144.3 33.3077 144.058 34.2112 144.058 35.302V42.5H141.152L141.179 33.1019C141.179 31.5207 141.143 30.0811 141.07 28.7831H143.602L143.709 31.4078H143.789C144.096 30.5057 144.58 29.7795 145.242 29.2348C145.89 28.7445 146.59 28.5 147.344 28.5C147.612 28.5 147.855 28.52 148.07 28.5558V31.4621Z" fill="#F5FAFE"/>
<path d="M160.07 34.8896C160.07 35.425 160.038 35.8763 159.97 36.2449H151.72C151.752 37.5736 152.151 38.5897 152.917 39.2905C153.612 39.917 154.511 40.2309 155.615 40.2309C156.837 40.2309 157.951 40.0193 158.953 39.5946L159.384 41.6689C158.213 42.2239 156.83 42.5 155.235 42.5C153.315 42.5 151.809 41.8861 150.712 40.6598C149.619 39.4334 149.07 37.7866 149.07 35.7207C149.07 33.6927 149.58 32.0039 150.6 30.657C151.668 29.219 153.111 28.5 154.928 28.5C156.711 28.5 158.062 29.219 158.979 30.657C159.705 31.7992 160.07 33.212 160.07 34.8896ZM157.448 34.1146C157.466 33.2288 157.287 32.4636 156.914 31.8174C156.438 30.9863 155.707 30.5715 154.723 30.5715C153.823 30.5715 153.092 30.9765 152.534 31.7894C152.076 32.4355 151.804 33.2106 151.72 34.1132H157.448V34.1146Z" fill="#F5FAFE"/>
<path d="M63.0703 13.26C63.0703 15.0312 62.6105 16.3646 61.6922 17.26C60.8416 18.0862 59.6328 18.5 58.0672 18.5C57.2908 18.5 56.6265 18.4609 56.0703 18.3826V8.70466C56.7958 8.56922 57.5774 8.5 58.4214 8.5C59.9129 8.5 61.037 8.87472 61.7951 9.62415C62.6444 10.4714 63.0703 11.6828 63.0703 13.26ZM61.631 13.3036C61.631 12.1554 61.3679 11.275 60.8416 10.661C60.3154 10.0485 59.5469 9.74153 58.5348 9.74153C58.1049 9.74153 57.7389 9.77464 57.4354 9.84387V17.2013C57.6034 17.2314 57.9108 17.2449 58.3576 17.2449C59.4023 17.2449 60.2086 16.9093 60.7765 16.2381C61.3444 15.567 61.631 14.5888 61.631 13.3036Z" fill="#F5FAFE"/>
<path d="M71.0703 14.9366C71.0703 15.9688 70.8013 16.8144 70.2633 17.4778C69.6993 18.1598 68.9521 18.5 68.019 18.5C67.1197 18.5 66.4036 18.174 65.8695 17.5191C65.3367 16.8657 65.0703 16.0414 65.0703 15.0477C65.0703 14.0084 65.3445 13.1557 65.8955 12.4937C66.4465 11.8317 67.1873 11.5 68.1203 11.5C69.0196 11.5 69.7422 11.826 70.2893 12.4795C70.8091 13.1144 71.0703 13.9344 71.0703 14.9366ZM69.6577 14.9851C69.6577 14.3658 69.5356 13.8348 69.2925 13.392C69.0066 12.8567 68.5999 12.5891 68.071 12.5891C67.5239 12.5891 67.108 12.8567 66.8221 13.392C66.5778 13.8348 66.4569 14.3743 66.4569 15.0121C66.4569 15.6314 66.5791 16.1624 66.8221 16.6051C67.1171 17.1404 67.5278 17.4081 68.058 17.4081C68.5778 17.4081 68.9858 17.1362 69.2795 16.5909C69.5316 16.1396 69.6577 15.6043 69.6577 14.9851Z" fill="#F5FAFE"/>
<path d="M81.0703 11.5L79.1267 18.5H77.8617L77.0566 15.4603C76.8523 14.7015 76.6863 13.9472 76.5571 13.1988H76.5321C76.4122 13.968 76.2462 14.7208 76.0327 15.4603L75.1775 18.5H73.898L72.0703 11.5H73.4895L74.1918 14.8277C74.3618 15.6148 74.5015 16.3647 74.6135 17.0745H74.6385C74.7413 16.4894 74.9113 15.744 75.1511 14.8426L76.0327 11.5015H77.158L78.0027 14.7713C78.2069 15.5687 78.3729 16.3364 78.5008 17.0759H78.539C78.6325 16.3557 78.7735 15.588 78.9607 14.7713L79.7144 11.5015H81.0703V11.5Z" fill="#F5FAFE"/>
<path d="M88.0703 18.5H86.8022V14.5731C86.8022 13.3631 86.4198 12.7581 85.6526 12.7581C85.2763 12.7581 84.9725 12.9239 84.7366 13.2569C84.503 13.59 84.3844 13.9827 84.3844 14.4321V18.4985H83.1163V13.6031C83.1163 13.0009 83.1006 12.3479 83.0703 11.6411H84.1848L84.2441 12.713H84.2792C84.4268 12.3799 84.647 12.105 84.9362 11.8854C85.2799 11.6294 85.6647 11.5 86.0858 11.5C86.6182 11.5 87.0611 11.7065 87.4132 12.121C87.8513 12.6286 88.0703 13.3864 88.0703 14.3928V18.5Z" fill="#F5FAFE"/>
<path d="M92.0703 18.5H91.0703V8.5H92.0703V18.5Z" fill="#F5FAFE"/>
<path d="M100.07 14.9366C100.07 15.9688 99.8013 16.8144 99.2633 17.4778C98.6993 18.1598 97.9508 18.5 97.019 18.5C96.1184 18.5 95.4023 18.174 94.8695 17.5191C94.3367 16.8657 94.0703 16.0414 94.0703 15.0477C94.0703 14.0084 94.3445 13.1557 94.8955 12.4937C95.4465 11.8317 96.1873 11.5 97.119 11.5C98.0196 11.5 98.7409 11.826 99.2893 12.4795C99.8091 13.1144 100.07 13.9344 100.07 14.9366ZM98.6564 14.9851C98.6564 14.3658 98.5342 13.8348 98.2912 13.392C98.0066 12.8567 97.5986 12.5891 97.071 12.5891C96.5225 12.5891 96.1067 12.8567 95.8221 13.392C95.5778 13.8348 95.4569 14.3743 95.4569 15.0121C95.4569 15.6314 95.5791 16.1624 95.8221 16.6051C96.1171 17.1404 96.5278 17.4081 97.058 17.4081C97.5778 17.4081 97.9845 17.1362 98.2782 16.5909C98.5316 16.1396 98.6564 15.6043 98.6564 14.9851Z" fill="#F5FAFE"/>
<path d="M107.07 18.3477H105.855L105.754 17.5746H105.716C105.3 18.1911 104.707 18.5 103.937 18.5C103.362 18.5 102.897 18.2964 102.547 17.8921C102.229 17.5248 102.07 17.0678 102.07 16.5254C102.07 15.7054 102.38 15.0804 103.004 14.6477C103.627 14.2149 104.503 14.0027 105.631 14.0127V13.8874C105.631 13.0034 105.21 12.562 104.366 12.562C103.765 12.562 103.236 12.7286 102.778 13.0589L102.503 12.0794C103.069 11.6936 103.768 11.5 104.592 11.5C106.184 11.5 106.982 12.4254 106.982 14.2761V16.7475C106.982 17.418 107.012 17.9519 107.07 18.3477ZM105.665 16.0414V15.0064C104.171 14.9779 103.424 15.4292 103.424 16.3589C103.424 16.7091 103.51 16.971 103.684 17.1461C103.858 17.3212 104.081 17.4081 104.346 17.4081C104.643 17.4081 104.92 17.3041 105.174 17.0977C105.428 16.8899 105.585 16.6265 105.643 16.3033C105.657 16.2307 105.665 16.1425 105.665 16.0414Z" fill="#F5FAFE"/>
<path d="M114.07 18.3468H112.83L112.765 17.2629H112.726C112.33 18.0876 111.656 18.5 110.708 18.5C109.95 18.5 109.32 18.1807 108.82 17.5421C108.32 16.9035 108.07 16.0745 108.07 15.0564C108.07 13.9639 108.341 13.079 108.885 12.4032C109.412 11.7732 110.057 11.4582 110.825 11.4582C111.669 11.4582 112.26 11.7632 112.596 12.3746H112.622V8.5H114.021V16.5284C114.021 17.1856 114.037 17.7912 114.07 18.3468ZM112.622 15.5003V14.3749C112.622 14.1801 112.609 14.0226 112.584 13.9023C112.505 13.5415 112.336 13.238 112.078 12.9931C111.818 12.7483 111.505 12.6251 111.144 12.6251C110.622 12.6251 110.214 12.8471 109.914 13.2924C109.617 13.7377 109.466 14.3061 109.466 15.0006C109.466 15.6678 109.609 16.209 109.896 16.6257C110.198 17.0696 110.606 17.2915 111.117 17.2915C111.576 17.2915 111.942 17.1068 112.221 16.736C112.49 16.3938 112.622 15.9814 112.622 15.5003Z" fill="#F5FAFE"/>
<path d="M126.07 14.9366C126.07 15.9688 125.801 16.8144 125.263 17.4778C124.699 18.1598 123.953 18.5 123.019 18.5C122.121 18.5 121.405 18.174 120.87 17.5191C120.337 16.8657 120.07 16.0414 120.07 15.0477C120.07 14.0084 120.345 13.1557 120.896 12.4937C121.447 11.8317 122.187 11.5 123.122 11.5C124.02 11.5 124.743 11.826 125.289 12.4795C125.809 13.1144 126.07 13.9344 126.07 14.9366ZM124.659 14.9851C124.659 14.3658 124.537 13.8348 124.294 13.392C124.007 12.8567 123.601 12.5891 123.071 12.5891C122.525 12.5891 122.109 12.8567 121.822 13.392C121.578 13.8348 121.457 14.3743 121.457 15.0121C121.457 15.6314 121.579 16.1624 121.822 16.6051C122.117 17.1404 122.528 17.4081 123.058 17.4081C123.578 17.4081 123.987 17.1362 124.281 16.5909C124.532 16.1396 124.659 15.6043 124.659 14.9851Z" fill="#F5FAFE"/>
<path d="M133.07 18.5H131.803V14.5731C131.803 13.3631 131.421 12.7581 130.652 12.7581C130.276 12.7581 129.972 12.9239 129.737 13.2569C129.502 13.59 129.385 13.9827 129.385 14.4321V18.4985H128.115V13.6031C128.115 13.0009 128.101 12.3479 128.07 11.6411H129.184L129.243 12.713H129.278C129.427 12.3799 129.647 12.105 129.935 11.8854C130.28 11.6294 130.664 11.5 131.087 11.5C131.618 11.5 132.061 11.7065 132.413 12.121C132.852 12.6286 133.07 13.3864 133.07 14.3928V18.5Z" fill="#F5FAFE"/>
<path d="M143.07 12.4459H141.463V15.8895C141.463 16.7647 141.748 17.2023 142.314 17.2023C142.576 17.2023 142.793 17.1782 142.964 17.1286L143.002 18.3241C142.714 18.4414 142.335 18.5 141.868 18.5C141.291 18.5 140.843 18.3105 140.518 17.9316C140.192 17.5526 140.03 16.915 140.03 16.0203V12.4459H139.07V11.2654H140.03V9.96617L141.461 9.5V11.2639H143.069V12.4459H143.07Z" fill="#F5FAFE"/>
<path d="M150.07 18.5H148.789V14.603C148.789 13.3742 148.403 12.7591 147.63 12.7591C147.037 12.7591 146.631 13.1154 146.409 13.8279C146.371 13.9777 146.349 14.1609 146.349 14.3761V18.4985H145.07V8.5H146.349V12.6312H146.373C146.776 11.8794 147.354 11.5042 148.103 11.5042C148.633 11.5042 149.071 11.7107 149.419 12.1251C149.853 12.6413 150.07 13.4091 150.07 14.4241V18.5Z" fill="#F5FAFE"/>
<path d="M158.07 14.694C158.07 14.9622 158.05 15.1876 158.014 15.3716H153.515C153.535 16.0364 153.75 16.5428 154.166 16.8937C154.547 17.2076 155.038 17.3645 155.639 17.3645C156.305 17.3645 156.912 17.2589 157.459 17.0464L157.694 18.0849C157.054 18.3616 156.301 18.5 155.429 18.5C154.384 18.5 153.561 18.1933 152.965 17.5799C152.367 16.9665 152.07 16.1434 152.07 15.1106C152.07 14.0963 152.347 13.2518 152.904 12.5785C153.485 11.8595 154.271 11.5 155.263 11.5C156.234 11.5 156.971 11.8595 157.469 12.5785C157.871 13.1491 158.07 13.8552 158.07 14.694ZM156.639 14.3074C156.65 13.8638 156.551 13.4815 156.348 13.1591C156.087 12.7439 155.691 12.5357 155.154 12.5357C154.664 12.5357 154.265 12.7382 153.96 13.1448C153.711 13.4686 153.564 13.8552 153.515 14.3074H156.639Z" fill="#F5FAFE"/>
<defs>
<radialGradient id="paint0_radial_1_6400" cx="0" cy="0" r="1" gradientUnits="userSpaceOnUse" gradientTransform="translate(4.57003 6.50665) rotate(14.6232) scale(170.513 636.425)">
<stop offset="0.494792" stop-color="#05132E"/>
<stop offset="1" stop-color="#364D63"/>
</radialGradient>
</defs>
</svg>
