<svg width="24" height="25" viewBox="0 0 24 25" fill="none" xmlns="http://www.w3.org/2000/svg">
<path d="M14 19.496H10C7.87827 19.496 5.84344 18.6534 4.34315 17.1536C2.84285 15.6537 2 13.6195 2 11.4985V6.5H6V11.4985C6 12.559 6.42143 13.5761 7.17157 14.326C7.92172 15.0759 8.93913 15.4972 10 15.4972V6.5H14V10.9986L14.03 10.9946C15.126 10.8579 16.1343 10.3257 16.8654 9.498C17.5965 8.67031 18 7.60418 18 6.5H22L21.658 8.21047C21.4532 9.23424 21.0171 10.1977 20.3832 11.0274C19.7493 11.8571 18.9341 12.5311 18 12.998V12.998C18.9083 13.3005 19.7186 13.8416 20.346 14.5647C20.9734 15.2877 21.3947 16.166 21.566 17.1077L22 19.496H18C18 18.3918 17.5965 17.3257 16.8654 16.498C16.1343 15.6703 15.126 15.1381 14.03 15.0014V19.5L14 19.496Z" stroke="#F5FAFE" stroke-linecap="round" stroke-linejoin="round"/>
</svg>
