<svg width="20" height="20" viewBox="0 0 20 20" fill="none" xmlns="http://www.w3.org/2000/svg">
<path d="M7 4H6C5.58579 4 5 4.52661 5 5V15C5 15.4734 5.58579 16 6 16H7C7.41421 16 8 15.4734 8 15V5C8 4.52661 7.41421 4 7 4Z" stroke="url(#paint0_radial_2063_1731)" stroke-linecap="round" stroke-linejoin="round"/>
<path d="M14 4H13C12.5858 4 12 4.52661 12 5V15C12 15.4734 12.5858 16 13 16H14C14.4142 16 15 15.4734 15 15V5C15 4.52661 14.4142 4 14 4Z" stroke="url(#paint1_radial_2063_1731)" stroke-linecap="round" stroke-linejoin="round"/>
<defs>
<radialGradient id="paint0_radial_2063_1731" cx="0" cy="0" r="1" gradientUnits="userSpaceOnUse" gradientTransform="translate(8 14.5) rotate(-108.932) scale(8.72182 12.6855)">
<stop stop-color="#70C270"/>
<stop offset="1" stop-color="#269ED9"/>
</radialGradient>
<radialGradient id="paint1_radial_2063_1731" cx="0" cy="0" r="1" gradientUnits="userSpaceOnUse" gradientTransform="translate(15 14.5) rotate(-108.932) scale(8.72182 12.6855)">
<stop stop-color="#70C270"/>
<stop offset="1" stop-color="#269ED9"/>
</radialGradient>
</defs>
</svg>
