<svg width="25" height="24" viewBox="0 0 25 24" fill="none" xmlns="http://www.w3.org/2000/svg">
<g clip-path="url(#clip0_1_5757)">
<path d="M14.1401 3V7C14.1401 7.26522 14.2455 7.51957 14.433 7.70711C14.6206 7.89464 14.8749 8 15.1401 8H19.1401" stroke="#F5FAFE" stroke-width="0.857143" stroke-linecap="round" stroke-linejoin="round"/>
<path d="M17.1401 21H7.14014C6.6097 21 6.101 20.7893 5.72592 20.4142C5.35085 20.0391 5.14014 19.5304 5.14014 19V5C5.14014 4.46957 5.35085 3.96086 5.72592 3.58579C6.101 3.21071 6.6097 3 7.14014 3H14.1401L19.1401 8V19C19.1401 19.5304 18.9294 20.0391 18.5544 20.4142C18.1793 20.7893 17.6706 21 17.1401 21Z" stroke="#F5FAFE" stroke-width="0.857143" stroke-linecap="round" stroke-linejoin="round"/>
<path d="M9.14014 12C9.14014 12.1326 9.19281 12.2598 9.28658 12.3536C9.38035 12.4473 9.50753 12.5 9.64014 12.5C9.77274 12.5 9.89992 12.4473 9.99369 12.3536C10.0875 12.2598 10.1401 12.1326 10.1401 12V11C10.1401 10.8674 10.0875 10.7402 9.99369 10.6464C9.89992 10.5527 9.77274 10.5 9.64014 10.5C9.50753 10.5 9.38035 10.5527 9.28658 10.6464C9.19281 10.7402 9.14014 10.8674 9.14014 11V12ZM9.14014 12C9.14014 13.3261 9.66692 14.5979 10.6046 15.5355C11.5423 16.4732 12.8141 17 14.1401 17H15.1401C15.2727 17 15.3999 16.9473 15.4937 16.8536C15.5875 16.7598 15.6401 16.6326 15.6401 16.5C15.6401 16.3674 15.5875 16.2402 15.4937 16.1464C15.3999 16.0527 15.2727 16 15.1401 16H14.1401C14.0075 16 13.8804 16.0527 13.7866 16.1464C13.6928 16.2402 13.6401 16.3674 13.6401 16.5C13.6401 16.6326 13.6928 16.7598 13.7866 16.8536C13.8804 16.9473 14.0075 17 14.1401 17" stroke="#F5FAFE" stroke-width="0.857143" stroke-linecap="round" stroke-linejoin="round"/>
</g>
<defs>
<clipPath id="clip0_1_5757">
<rect width="24" height="24" fill="white" transform="translate(0.140137)"/>
</clipPath>
</defs>
</svg>
