<svg width="32" height="28" viewBox="0 0 32 28" fill="none" xmlns="http://www.w3.org/2000/svg">
<path d="M28.9426 3.89647L28.7837 2.5L27.1946 2.94332C24.4711 3.73526 21.5627 3.97829 18.7059 3.65264C15.7039 3.26275 12.6313 3.60922 9.85967 4.65013C8.39035 5.17374 7.10086 5.99663 6.1086 7.04387C5.11634 8.09111 4.45283 9.32943 4.17848 10.6461C3.82275 12.347 4.00071 14.0961 4.69496 15.7222C5.14197 14.8777 5.66434 14.0627 6.25761 13.2839C7.60335 11.6268 9.46805 10.3116 11.6475 9.48237C13.747 8.68009 16.042 8.30051 18.3483 8.37406C16.1527 8.65501 14.051 9.31555 12.1772 10.3136C11.2733 10.7889 10.4456 11.3587 9.714 12.0093C9.01433 12.6596 8.39742 13.369 7.87324 14.1262C6.88868 15.7089 6.18811 17.4043 5.79411 19.1579C5.36943 20.9172 5.13892 22.7054 5.10548 24.5H7.75406C7.87854 22.8905 8.13964 21.2905 8.53539 19.7121C10.3727 20.5424 12.4332 20.9659 14.5212 20.9423C16.4685 20.9412 18.3958 20.6133 20.1891 19.9781C30.2669 16.3761 28.9426 4.39521 28.9426 3.89647Z" fill="url(#paint0_radial_1_7729)"/>
<defs>
<radialGradient id="paint0_radial_1_7729" cx="0" cy="0" r="1" gradientUnits="userSpaceOnUse" gradientTransform="translate(29 21.75) rotate(-147.324) scale(28.0153 60.3366)">
<stop stop-color="#70C270"/>
<stop offset="1" stop-color="#269ED9"/>
</radialGradient>
</defs>
</svg>
