<svg width="38" height="38" viewBox="0 0 38 38" fill="none" xmlns="http://www.w3.org/2000/svg">
<path d="M21.6045 19.5V23.5M19.6045 21.5H23.6045" stroke="#081530" stroke-width="2" stroke-linecap="round" stroke-linejoin="round"/>
<path d="M21.6045 26.5C24.3659 26.5 26.6045 24.2614 26.6045 21.5C26.6045 18.7386 24.3659 16.5 21.6045 16.5C18.8431 16.5 16.6045 18.7386 16.6045 21.5C16.6045 24.2614 18.8431 26.5 21.6045 26.5Z" stroke="#081530" stroke-width="2" stroke-linecap="round" stroke-linejoin="round"/>
<path d="M28.6045 28.5L25.6045 25.5M12.6045 24.5H11.6045C11.0741 24.5 10.5654 24.2893 10.1903 23.9142C9.81521 23.5391 9.60449 23.0304 9.60449 22.5V21.5M9.60449 17.5V16.5M9.60449 12.5V11.5C9.60449 10.9696 9.81521 10.4609 10.1903 10.0858C10.5654 9.71071 11.0741 9.5 11.6045 9.5H12.6045M16.6045 9.5H17.6045M21.6045 9.5H22.6045C23.1349 9.5 23.6436 9.71071 24.0187 10.0858C24.3938 10.4609 24.6045 10.9696 24.6045 11.5V12.5" stroke="#081530" stroke-width="2" stroke-linecap="round" stroke-linejoin="round"/>
</svg>
