<?xml version="1.0" encoding="utf-8"?>
<!-- Generator: Adobe Illustrator 22.1.0, SVG Export Plug-In . SVG Version: 6.00 Build 0)  -->
<svg version="1.1" id="Слой_1" xmlns="http://www.w3.org/2000/svg" xmlns:xlink="http://www.w3.org/1999/xlink" x="0px" y="0px"
	 viewBox="0 0 78.8 78.8" style="enable-background:new 0 0 78.8 78.8;" xml:space="preserve">
<path d="M50.8,78.8C40.9,70,36.6,55,34.7,42.4C33.4,33.1,33,23,34.9,13.5c0.8,3,2.2,5.9,3.8,8.4c0.9,1.3,4.6,0.4,5.1,1.3
	c-4.2-5.8-6.3-22.8-6.3-22.8s-3-0.6-3.1-0.3c-0.7,1.1-5.9,9.1-6.3,9.6c-2.5,2.9-5.1,5.7-8.6,7.7c0.6-0.3,3.4,1.6,4.4,1.2
	c2.1-0.7,3.7-1.9,5.2-3.4c-1.2,8.8-0.1,18.3,1.5,26.4c2.5,12.8,7.2,28,17.6,36.7C49,78.7,50.3,78.3,50.8,78.8z"/>
</svg>
