<svg width="24" height="24" viewBox="0 0 24 24" fill="none" xmlns="http://www.w3.org/2000/svg">
<g clip-path="url(#clip0_2527_463)">
<path d="M12 10C12 8.4087 11.3679 6.88258 10.2426 5.75736C9.11742 4.63214 7.5913 4 6 4H3V6C3 7.5913 3.63214 9.11742 4.75736 10.2426C5.88258 11.3679 7.4087 12 9 12H12" stroke="url(#paint0_radial_2527_463)" stroke-linecap="round" stroke-linejoin="round"/>
<path d="M12 14C12 12.4087 12.6321 10.8826 13.7574 9.75736C14.8826 8.63214 16.4087 8 18 8H21V9C21 10.5913 20.3679 12.1174 19.2426 13.2426C18.1174 14.3679 16.5913 15 15 15H12" stroke="url(#paint1_radial_2527_463)" stroke-linecap="round" stroke-linejoin="round"/>
<path d="M12 20V10" stroke="url(#paint2_radial_2527_463)" stroke-linecap="round" stroke-linejoin="round"/>
</g>
<defs>
<radialGradient id="paint0_radial_2527_463" cx="0" cy="0" r="1" gradientUnits="userSpaceOnUse" gradientTransform="translate(12 11) rotate(-147.062) scale(10.1153 21.8759)">
<stop stop-color="#70C270"/>
<stop offset="1" stop-color="#269ED9"/>
</radialGradient>
<radialGradient id="paint1_radial_2527_463" cx="0" cy="0" r="1" gradientUnits="userSpaceOnUse" gradientTransform="translate(21 14.125) rotate(-150.452) scale(9.75856 19.8412)">
<stop stop-color="#70C270"/>
<stop offset="1" stop-color="#269ED9"/>
</radialGradient>
<radialGradient id="paint2_radial_2527_463" cx="0" cy="0" r="1" gradientUnits="userSpaceOnUse" gradientTransform="translate(13 18.75) rotate(-97.8123) scale(6.93941 4.42885)">
<stop stop-color="#70C270"/>
<stop offset="1" stop-color="#269ED9"/>
</radialGradient>
<clipPath id="clip0_2527_463">
<rect width="24" height="24" fill="white"/>
</clipPath>
</defs>
</svg>
