<svg width="25" height="24" viewBox="0 0 25 24" fill="none" xmlns="http://www.w3.org/2000/svg">
<g clip-path="url(#clip0_2600_494)">
<path d="M12.5 10C12.5 8.4087 11.8679 6.88258 10.7426 5.75736C9.61742 4.63214 8.0913 4 6.5 4H3.5V6C3.5 7.5913 4.13214 9.11742 5.25736 10.2426C6.38258 11.3679 7.9087 12 9.5 12H12.5" stroke="#081530" stroke-linecap="round" stroke-linejoin="round"/>
<path d="M12.5 14C12.5 12.4087 13.1321 10.8826 14.2574 9.75736C15.3826 8.63214 16.9087 8 18.5 8H21.5V9C21.5 10.5913 20.8679 12.1174 19.7426 13.2426C18.6174 14.3679 17.0913 15 15.5 15H12.5" stroke="#081530" stroke-linecap="round" stroke-linejoin="round"/>
<path d="M12.5 20V10" stroke="#081530" stroke-linecap="round" stroke-linejoin="round"/>
</g>
<defs>
<clipPath id="clip0_2600_494">
<rect width="24" height="24" fill="white" transform="translate(0.5)"/>
</clipPath>
</defs>
</svg>
