<svg width="25" height="24" viewBox="0 0 25 24" fill="none" xmlns="http://www.w3.org/2000/svg">
<g clip-path="url(#clip0_1_5751)">
<path d="M12.1401 10C12.1401 8.4087 11.508 6.88258 10.3828 5.75736C9.25756 4.63214 7.73144 4 6.14014 4H3.14014V6C3.14014 7.5913 3.77228 9.11742 4.8975 10.2426C6.02271 11.3679 7.54884 12 9.14014 12H12.1401" stroke="#F5FAFE" stroke-linecap="round" stroke-linejoin="round"/>
<path d="M12.1401 14C12.1401 12.4087 12.7723 10.8826 13.8975 9.75736C15.0227 8.63214 16.5488 8 18.1401 8H21.1401V9C21.1401 10.5913 20.508 12.1174 19.3828 13.2426C18.2576 14.3679 16.7314 15 15.1401 15H12.1401" stroke="#F5FAFE" stroke-linecap="round" stroke-linejoin="round"/>
<path d="M12.1401 20V10" stroke="#F5FAFE" stroke-linecap="round" stroke-linejoin="round"/>
</g>
<defs>
<clipPath id="clip0_1_5751">
<rect width="24" height="24" fill="white" transform="translate(0.140137)"/>
</clipPath>
</defs>
</svg>
