<svg width="25" height="24" viewBox="0 0 25 24" fill="none" xmlns="http://www.w3.org/2000/svg">
<g clip-path="url(#clip0_2600_499)">
<path d="M14.2139 2.57141V6.6857C14.2139 6.95849 14.3222 7.22011 14.5151 7.41301C14.708 7.6059 14.9696 7.71427 15.2424 7.71427H19.3567" stroke="#081530" stroke-linecap="round" stroke-linejoin="round"/>
<path d="M17.3977 20.5714H7.60176C7.08215 20.5714 6.58383 20.3607 6.21641 19.9856C5.84899 19.6106 5.64258 19.1018 5.64258 18.5714V4.57141C5.64258 4.04098 5.84899 3.53227 6.21641 3.1572C6.58383 2.78212 7.08215 2.57141 7.60176 2.57141H14.4589L19.3569 7.57141V18.5714C19.3569 19.1018 19.1505 19.6106 18.783 19.9856C18.4156 20.3607 17.9173 20.5714 17.3977 20.5714Z" stroke="#081530" stroke-linecap="round" stroke-linejoin="round"/>
<path d="M9.92871 11.8682C9.92871 12.0081 9.98428 12.1422 10.0832 12.2412C10.1821 12.3401 10.3163 12.3957 10.4562 12.3957C10.5961 12.3957 10.7302 12.3401 10.8292 12.2412C10.9281 12.1422 10.9837 12.0081 10.9837 11.8682V10.8132C10.9837 10.6733 10.9281 10.5392 10.8292 10.4403C10.7302 10.3413 10.5961 10.2858 10.4562 10.2858C10.3163 10.2858 10.1821 10.3413 10.0832 10.4403C9.98428 10.5392 9.92871 10.6733 9.92871 10.8132V11.8682ZM9.92871 11.8682C9.92871 13.2671 10.4844 14.6088 11.4736 15.598C12.4628 16.5872 13.8045 17.1429 15.2034 17.1429H16.2584C16.3983 17.1429 16.5324 17.0873 16.6314 16.9884C16.7303 16.8895 16.7859 16.7553 16.7859 16.6154C16.7859 16.4755 16.7303 16.3414 16.6314 16.2425C16.5324 16.1435 16.3983 16.088 16.2584 16.088H15.2034C15.0635 16.088 14.9294 16.1435 14.8305 16.2425C14.7315 16.3414 14.676 16.4755 14.676 16.6154C14.676 16.7553 14.7315 16.8895 14.8305 16.9884C14.9294 17.0873 15.0635 17.1429 15.2034 17.1429" stroke="#081530" stroke-linecap="round" stroke-linejoin="round"/>
</g>
<defs>
<clipPath id="clip0_2600_499">
<rect width="24" height="24" fill="white" transform="translate(0.5)"/>
</clipPath>
</defs>
</svg>
