<svg width="25" height="24" viewBox="0 0 25 24" fill="none" xmlns="http://www.w3.org/2000/svg">
<g clip-path="url(#clip0_1_5740)">
<path d="M21.1402 3L14.6402 21C14.5963 21.0957 14.5259 21.1769 14.4373 21.2338C14.3486 21.2906 14.2455 21.3209 14.1402 21.3209C14.0349 21.3209 13.9318 21.2906 13.8432 21.2338C13.7545 21.1769 13.6841 21.0957 13.6402 21L10.1402 14L3.14021 10.5C3.04447 10.4561 2.96333 10.3857 2.90645 10.2971C2.84957 10.2084 2.81934 10.1053 2.81934 10C2.81934 9.89468 2.84957 9.79158 2.90645 9.70295C2.96333 9.61431 3.04447 9.54387 3.14021 9.5L21.1402 3Z" stroke="#F5FAFE" stroke-linecap="round" stroke-linejoin="round"/>
</g>
<defs>
<clipPath id="clip0_1_5740">
<rect width="24" height="24" fill="white" transform="translate(0.140137)"/>
</clipPath>
</defs>
</svg>
