<svg width="136" height="65" viewBox="0 0 136 65" fill="none" xmlns="http://www.w3.org/2000/svg">
<path d="M83.9289 4.77733L83.7318 3L81.7613 3.56423C78.3841 4.57215 74.7778 4.88145 71.2353 4.467C67.5129 3.97078 63.7028 4.41173 60.266 5.73652C58.444 6.40295 56.8451 7.45026 55.6147 8.78311C54.3843 10.116 53.5615 11.692 53.2213 13.3678C52.7802 15.5326 53.0009 17.7586 53.8617 19.8282C54.416 18.7535 55.0638 17.7161 55.7994 16.7249C57.4682 14.6159 59.7804 12.942 62.4828 11.8866C65.0863 10.8656 67.932 10.3825 70.792 10.4761C68.0694 10.8337 65.4633 11.6743 63.1397 12.9446C62.0189 13.5495 60.9925 14.2748 60.0854 15.1028C59.2178 15.9304 58.4528 16.8333 57.8028 17.797C56.582 19.8113 55.7133 21.9691 55.2247 24.201C54.6981 26.4401 54.4123 28.716 54.3708 31H57.655C57.8094 28.9516 58.1332 26.9152 58.6239 24.9063C60.9022 25.9631 63.4572 26.5021 66.0462 26.472C68.4609 26.4706 70.8508 26.0533 73.0745 25.2448C85.571 20.6605 83.9289 5.41209 83.9289 4.77733Z" fill="url(#paint0_radial_1_5428)"/>
<path d="M12.7734 45.7812V60H10.0879V47.9004H4.07227V60H1.38672V45.7812H12.7734ZM17.1777 52.6855H20.2637C21.2012 52.6855 21.9987 52.8418 22.6562 53.1543C23.3203 53.4603 23.8249 53.89 24.1699 54.4434C24.5215 54.9902 24.6973 55.625 24.6973 56.3477C24.6973 56.8685 24.5964 57.3535 24.3945 57.8027C24.1992 58.2454 23.9128 58.6328 23.5352 58.9648C23.1576 59.2904 22.6921 59.5443 22.1387 59.7266C21.5918 59.9089 20.9668 60 20.2637 60H15.5176V49.4336H18.1055V57.9785H20.2637C20.7129 57.9785 21.071 57.9036 21.3379 57.7539C21.6113 57.5977 21.8066 57.3991 21.9238 57.1582C22.0475 56.9108 22.1094 56.6471 22.1094 56.3672C22.1094 56.0807 22.0475 55.8138 21.9238 55.5664C21.8066 55.3125 21.6113 55.1074 21.3379 54.9512C21.071 54.7949 20.7129 54.7168 20.2637 54.7168H17.1777V52.6855ZM29.0332 49.4336V60H26.4453V49.4336H29.0332ZM38.7695 49.4336V51.4746H33.5938V49.4336H38.7695ZM40.7129 49.4336V60H38.1348V49.4336H40.7129ZM32.9492 49.4336H35.498L35.2148 54.707C35.1693 55.4818 35.0879 56.1621 34.9707 56.748C34.8535 57.3275 34.6973 57.8255 34.502 58.2422C34.3066 58.6523 34.069 58.9876 33.7891 59.248C33.5091 59.5085 33.1836 59.7005 32.8125 59.8242C32.4479 59.9414 32.0378 60 31.582 60H30.791L30.7617 57.9199L31.1328 57.8906C31.3607 57.8711 31.556 57.8092 31.7188 57.7051C31.888 57.6009 32.0312 57.4512 32.1484 57.2559C32.2721 57.0605 32.373 56.8099 32.4512 56.5039C32.5358 56.1914 32.6009 55.8268 32.6465 55.4102C32.6986 54.987 32.7344 54.4987 32.7539 53.9453L32.9492 49.4336ZM44.9121 52.6855H47.998C48.9355 52.6855 49.7331 52.8418 50.3906 53.1543C51.0547 53.4603 51.5592 53.89 51.9043 54.4434C52.2559 54.9902 52.4316 55.625 52.4316 56.3477C52.4316 56.8685 52.3307 57.3535 52.1289 57.8027C51.9336 58.2454 51.6471 58.6328 51.2695 58.9648C50.8919 59.2904 50.4264 59.5443 49.873 59.7266C49.3262 59.9089 48.7012 60 47.998 60H43.252V49.4336H45.8398V57.9785H47.998C48.4473 57.9785 48.8053 57.9036 49.0723 57.7539C49.3457 57.5977 49.541 57.3991 49.6582 57.1582C49.7819 56.9108 49.8438 56.6471 49.8438 56.3672C49.8438 56.0807 49.7819 55.8138 49.6582 55.5664C49.541 55.3125 49.3457 55.1074 49.0723 54.9512C48.8053 54.7949 48.4473 54.7168 47.998 54.7168H44.9121V52.6855ZM54.1895 60V49.4336H56.7773V57.9688H60.6152V49.4336H63.2129V60H54.1895ZM64.7168 57.9785L64.5312 63.1348H62.1387V60H60.918V57.9785H64.7168ZM72.0996 57.7539V52.8809C72.0996 52.5228 72.0378 52.2135 71.9141 51.9531C71.7904 51.6927 71.6016 51.4909 71.3477 51.3477C71.0938 51.2044 70.7715 51.1328 70.3809 51.1328C70.0358 51.1328 69.7331 51.1914 69.4727 51.3086C69.2188 51.4258 69.0234 51.5918 68.8867 51.8066C68.75 52.015 68.6816 52.2559 68.6816 52.5293H66.0938C66.0938 52.0931 66.1979 51.6797 66.4062 51.2891C66.6146 50.8919 66.9108 50.5404 67.2949 50.2344C67.6855 49.9219 68.151 49.6777 68.6914 49.502C69.2383 49.3262 69.8503 49.2383 70.5273 49.2383C71.3281 49.2383 72.041 49.375 72.666 49.6484C73.2975 49.9154 73.7923 50.319 74.1504 50.8594C74.515 51.3997 74.6973 52.0801 74.6973 52.9004V57.5098C74.6973 58.0371 74.7298 58.4896 74.7949 58.8672C74.8665 59.2383 74.9707 59.5605 75.1074 59.834V60H72.4805C72.3568 59.7331 72.2624 59.3945 72.1973 58.9844C72.1322 58.5677 72.0996 58.1576 72.0996 57.7539ZM72.4609 53.5645L72.4805 55.0977H70.8496C70.446 55.0977 70.0911 55.14 69.7852 55.2246C69.4792 55.3027 69.2285 55.4199 69.0332 55.5762C68.8379 55.7259 68.6914 55.9082 68.5938 56.123C68.4961 56.3314 68.4473 56.569 68.4473 56.8359C68.4473 57.0964 68.5059 57.3307 68.623 57.5391C68.7467 57.7474 68.9225 57.9134 69.1504 58.0371C69.3848 58.1543 69.6582 58.2129 69.9707 58.2129C70.4264 58.2129 70.8236 58.1217 71.1621 57.9395C71.5007 57.7507 71.7643 57.5228 71.9531 57.2559C72.1419 56.9889 72.2428 56.735 72.2559 56.4941L72.998 57.6074C72.9069 57.8743 72.7702 58.1576 72.5879 58.457C72.4056 58.7565 72.1712 59.0365 71.8848 59.2969C71.5983 59.5573 71.2533 59.7721 70.8496 59.9414C70.446 60.1107 69.9772 60.1953 69.4434 60.1953C68.7598 60.1953 68.1478 60.0586 67.6074 59.7852C67.0671 59.5117 66.6406 59.1374 66.3281 58.6621C66.0156 58.1868 65.8594 57.6465 65.8594 57.041C65.8594 56.4811 65.9635 55.9863 66.1719 55.5566C66.3802 55.127 66.6895 54.7656 67.0996 54.4727C67.5098 54.1732 68.0176 53.9486 68.623 53.7988C69.235 53.6426 69.9349 53.5645 70.7227 53.5645H72.4609ZM95.498 55.3223H98.1836C98.112 56.2728 97.8483 57.1159 97.3926 57.8516C96.9368 58.5807 96.3021 59.1536 95.4883 59.5703C94.6745 59.987 93.6882 60.1953 92.5293 60.1953C91.6374 60.1953 90.8333 60.0391 90.1172 59.7266C89.4076 59.4076 88.7988 58.9551 88.291 58.3691C87.7897 57.7767 87.4056 57.0671 87.1387 56.2402C86.8717 55.4069 86.7383 54.4727 86.7383 53.4375V52.3535C86.7383 51.3184 86.875 50.3841 87.1484 49.5508C87.4219 48.7174 87.8125 48.0078 88.3203 47.4219C88.8346 46.8294 89.4499 46.3737 90.166 46.0547C90.8887 45.7357 91.696 45.5762 92.5879 45.5762C93.7467 45.5762 94.7266 45.791 95.5273 46.2207C96.3281 46.6439 96.9499 47.2266 97.3926 47.9688C97.8353 48.7109 98.1022 49.5638 98.1934 50.5273H95.5078C95.4557 49.9284 95.3255 49.4206 95.1172 49.0039C94.9154 48.5872 94.6094 48.2715 94.1992 48.0566C93.7956 47.8353 93.2585 47.7246 92.5879 47.7246C92.0671 47.7246 91.6081 47.8223 91.2109 48.0176C90.8203 48.2129 90.4948 48.5059 90.2344 48.8965C89.974 49.2806 89.7786 49.7624 89.6484 50.3418C89.5182 50.9147 89.4531 51.5788 89.4531 52.334V53.4375C89.4531 54.1602 89.5117 54.8079 89.6289 55.3809C89.7461 55.9538 89.9284 56.4388 90.1758 56.8359C90.4232 57.2331 90.7422 57.5358 91.1328 57.7441C91.5234 57.9525 91.9889 58.0566 92.5293 58.0566C93.1868 58.0566 93.7207 57.9525 94.1309 57.7441C94.5475 57.5358 94.8633 57.2298 95.0781 56.8262C95.2995 56.4225 95.4395 55.9212 95.498 55.3223ZM109.287 57.8906V60H102.139V57.8906H109.287ZM102.949 45.7812V60H100.264V45.7812H102.949ZM118.623 45.7812H121.309V55.2246C121.309 56.3118 121.074 57.2266 120.605 57.9688C120.137 58.7044 119.499 59.2611 118.691 59.6387C117.884 60.0098 116.966 60.1953 115.938 60.1953C114.896 60.1953 113.968 60.0098 113.154 59.6387C112.34 59.2611 111.702 58.7044 111.24 57.9688C110.778 57.2266 110.547 56.3118 110.547 55.2246V45.7812H113.232V55.2246C113.232 55.8887 113.343 56.4323 113.564 56.8555C113.786 57.2721 114.098 57.5814 114.502 57.7832C114.906 57.985 115.384 58.0859 115.938 58.0859C116.497 58.0859 116.976 57.985 117.373 57.7832C117.777 57.5814 118.086 57.2721 118.301 56.8555C118.516 56.4323 118.623 55.8887 118.623 55.2246V45.7812ZM129.307 53.6621H125.674L125.654 51.7676H128.77C129.303 51.7676 129.749 51.6927 130.107 51.543C130.465 51.3932 130.736 51.1751 130.918 50.8887C131.107 50.6022 131.201 50.2539 131.201 49.8438C131.201 49.388 131.113 49.0169 130.938 48.7305C130.768 48.444 130.501 48.2357 130.137 48.1055C129.772 47.9688 129.31 47.9004 128.75 47.9004H126.543V60H123.857V45.7812H128.75C129.557 45.7812 130.277 45.8594 130.908 46.0156C131.546 46.1654 132.087 46.3997 132.529 46.7188C132.972 47.0378 133.307 47.4382 133.535 47.9199C133.77 48.4017 133.887 48.9746 133.887 49.6387C133.887 50.2246 133.75 50.765 133.477 51.2598C133.21 51.748 132.796 52.1452 132.236 52.4512C131.683 52.7572 130.98 52.9329 130.127 52.9785L129.307 53.6621ZM129.189 60H124.883L126.006 57.8906H129.189C129.723 57.8906 130.163 57.8027 130.508 57.627C130.859 57.4512 131.12 57.2103 131.289 56.9043C131.465 56.5918 131.553 56.2337 131.553 55.8301C131.553 55.3874 131.475 55.0033 131.318 54.6777C131.169 54.3522 130.928 54.1016 130.596 53.9258C130.27 53.75 129.84 53.6621 129.307 53.6621H126.514L126.533 51.7676H130.088L130.703 52.5C131.523 52.5065 132.191 52.6693 132.705 52.9883C133.226 53.3073 133.61 53.7174 133.857 54.2188C134.105 54.7201 134.229 55.2604 134.229 55.8398C134.229 56.7513 134.03 57.5163 133.633 58.1348C133.242 58.7533 132.669 59.2188 131.914 59.5312C131.165 59.8438 130.257 60 129.189 60Z" fill="url(#paint1_radial_1_5428)"/>
<defs>
<radialGradient id="paint0_radial_1_5428" cx="0" cy="0" r="1" gradientUnits="userSpaceOnUse" gradientTransform="translate(84 27.5) rotate(-146.642) scale(35.0087 76.2004)">
<stop stop-color="#70C270"/>
<stop offset="1" stop-color="#269ED9"/>
</radialGradient>
<radialGradient id="paint1_radial_1_5428" cx="0" cy="0" r="1" gradientUnits="userSpaceOnUse" gradientTransform="translate(6.11235 42) rotate(10.0416) scale(131.908 692.97)">
<stop stop-color="#269ED9"/>
<stop offset="1" stop-color="#5EB98A"/>
</radialGradient>
</defs>
</svg>
