<svg width="24" height="24" viewBox="0 0 24 24" fill="none" xmlns="http://www.w3.org/2000/svg">
<g clip-path="url(#clip0_2527_456)">
<path d="M9 4H5C4.44772 4 4 4.44772 4 5V9C4 9.55228 4.44772 10 5 10H9C9.55228 10 10 9.55228 10 9V5C10 4.44772 9.55228 4 9 4Z" stroke="url(#paint0_radial_2527_456)" stroke-linecap="round" stroke-linejoin="round"/>
<path d="M9 14H5C4.44772 14 4 14.4477 4 15V19C4 19.5523 4.44772 20 5 20H9C9.55228 20 10 19.5523 10 19V15C10 14.4477 9.55228 14 9 14Z" stroke="url(#paint1_radial_2527_456)" stroke-linecap="round" stroke-linejoin="round"/>
<path d="M19 14H15C14.4477 14 14 14.4477 14 15V19C14 19.5523 14.4477 20 15 20H19C19.5523 20 20 19.5523 20 19V15C20 14.4477 19.5523 14 19 14Z" stroke="url(#paint2_radial_2527_456)" stroke-linecap="round" stroke-linejoin="round"/>
<path d="M14 7H20" stroke="url(#paint3_radial_2527_456)" stroke-linecap="round" stroke-linejoin="round"/>
<path d="M17 4V10" stroke="url(#paint4_radial_2527_456)" stroke-linecap="round" stroke-linejoin="round"/>
</g>
<defs>
<radialGradient id="paint0_radial_2527_456" cx="0" cy="0" r="1" gradientUnits="userSpaceOnUse" gradientTransform="translate(10 9.25) rotate(-143.913) scale(7.00331 15.7984)">
<stop stop-color="#70C270"/>
<stop offset="1" stop-color="#269ED9"/>
</radialGradient>
<radialGradient id="paint1_radial_2527_456" cx="0" cy="0" r="1" gradientUnits="userSpaceOnUse" gradientTransform="translate(10 19.25) rotate(-143.913) scale(7.00331 15.7984)">
<stop stop-color="#70C270"/>
<stop offset="1" stop-color="#269ED9"/>
</radialGradient>
<radialGradient id="paint2_radial_2527_456" cx="0" cy="0" r="1" gradientUnits="userSpaceOnUse" gradientTransform="translate(20 19.25) rotate(-143.913) scale(7.00331 15.7984)">
<stop stop-color="#70C270"/>
<stop offset="1" stop-color="#269ED9"/>
</radialGradient>
<radialGradient id="paint3_radial_2527_456" cx="0" cy="0" r="1" gradientUnits="userSpaceOnUse" gradientTransform="translate(20 7.875) rotate(-173.074) scale(5.70118 3.23444)">
<stop stop-color="#70C270"/>
<stop offset="1" stop-color="#269ED9"/>
</radialGradient>
<radialGradient id="paint4_radial_2527_456" cx="0" cy="0" r="1" gradientUnits="userSpaceOnUse" gradientTransform="translate(18 9.25) rotate(-102.88) scale(4.23147 4.35785)">
<stop stop-color="#70C270"/>
<stop offset="1" stop-color="#269ED9"/>
</radialGradient>
<clipPath id="clip0_2527_456">
<rect width="24" height="24" fill="white"/>
</clipPath>
</defs>
</svg>
