<svg width="25" height="24" viewBox="0 0 25 24" fill="none" xmlns="http://www.w3.org/2000/svg">
<path d="M15.1402 11V11.01M5.31321 8.37802C4.87461 8.04092 4.53775 7.58912 4.33987 7.07255C4.14199 6.55597 4.09079 5.99475 4.19193 5.4509C4.29306 4.90704 4.5426 4.40174 4.91296 3.99084C5.28332 3.57995 5.76008 3.27945 6.29054 3.12257C6.82101 2.96568 7.38452 2.95852 7.9188 3.10188C8.45308 3.24523 8.93732 3.53352 9.318 3.93487C9.69868 4.33623 9.96098 4.83502 10.0759 5.37613C10.1908 5.91724 10.1539 6.47958 9.96921 7.00102" stroke="#F5FAFE" stroke-linecap="round" stroke-linejoin="round"/>
<path d="M16.1401 4V7.803C17.3777 8.51912 18.32 9.65245 18.7981 11H20.1391C20.4043 11 20.6587 11.1054 20.8462 11.2929C21.0338 11.4804 21.1391 11.7348 21.1391 12V14C21.1391 14.2652 21.0338 14.5196 20.8462 14.7071C20.6587 14.8946 20.4043 15 20.1391 15H18.7971C18.4611 15.95 17.8901 16.8 17.1391 17.473V19.5C17.1391 19.8978 16.9811 20.2794 16.6998 20.5607C16.4185 20.842 16.037 21 15.6391 21C15.2413 21 14.8598 20.842 14.5785 20.5607C14.2972 20.2794 14.1391 19.8978 14.1391 19.5V18.917C13.8087 18.9724 13.4742 19.0001 13.1391 19H9.13913C8.80407 19.0001 8.46958 18.9724 8.13913 18.917V19.5C8.13913 19.8978 7.98109 20.2794 7.69979 20.5607C7.41848 20.842 7.03695 21 6.63913 21C6.2413 21 5.85977 20.842 5.57847 20.5607C5.29716 20.2794 5.13913 19.8978 5.13913 19.5V17.5L5.14013 17.473C4.23415 16.663 3.59549 15.597 3.30867 14.4161C3.02185 13.2352 3.10039 11.995 3.53389 10.8597C3.9674 9.72438 4.73543 8.74747 5.73635 8.05826C6.73726 7.36904 7.92387 7.00001 9.13913 7H11.6391L16.1391 4H16.1401Z" stroke="#F5FAFE" stroke-linecap="round" stroke-linejoin="round"/>
</svg>
