<svg width="24" height="24" viewBox="0 0 24 24" fill="none" xmlns="http://www.w3.org/2000/svg">
<path d="M15.0001 11V11.01M5.17307 8.37802C4.73447 8.04092 4.39762 7.58912 4.19973 7.07255C4.00185 6.55597 3.95065 5.99475 4.05179 5.4509C4.15293 4.90704 4.40247 4.40174 4.77283 3.99084C5.14319 3.57995 5.61994 3.27945 6.15041 3.12257C6.68087 2.96568 7.24438 2.95852 7.77866 3.10188C8.31294 3.24523 8.79718 3.53352 9.17786 3.93487C9.55854 4.33623 9.82084 4.83502 9.93577 5.37613C10.0507 5.91724 10.0138 6.47958 9.82907 7.00102" stroke="url(#paint0_radial_2527_475)" stroke-linecap="round" stroke-linejoin="round"/>
<path d="M16 4V7.803C17.2376 8.51912 18.1799 9.65245 18.658 11H19.999C20.2642 11 20.5186 11.1054 20.7061 11.2929C20.8936 11.4804 20.999 11.7348 20.999 12V14C20.999 14.2652 20.8936 14.5196 20.7061 14.7071C20.5186 14.8946 20.2642 15 19.999 15H18.657C18.321 15.95 17.75 16.8 16.999 17.473V19.5C16.999 19.8978 16.841 20.2794 16.5597 20.5607C16.2783 20.842 15.8968 21 15.499 21C15.1012 21 14.7196 20.842 14.4383 20.5607C14.157 20.2794 13.999 19.8978 13.999 19.5V18.917C13.6685 18.9724 13.334 19.0001 12.999 19H8.99899C8.66393 19.0001 8.32945 18.9724 7.99899 18.917V19.5C7.99899 19.8978 7.84096 20.2794 7.55965 20.5607C7.27835 20.842 6.89682 21 6.49899 21C6.10117 21 5.71964 20.842 5.43833 20.5607C5.15703 20.2794 4.99899 19.8978 4.99899 19.5V17.5L4.99999 17.473C4.09402 16.663 3.45536 15.597 3.16853 14.4161C2.88171 13.2352 2.96025 11.995 3.39375 10.8597C3.82726 9.72438 4.59529 8.74747 5.59621 8.05826C6.59712 7.36904 7.78373 7.00001 8.99899 7H11.499L15.999 4H16Z" stroke="url(#paint1_radial_2527_475)" stroke-linecap="round" stroke-linejoin="round"/>
<defs>
<radialGradient id="paint0_radial_2527_475" cx="0" cy="0" r="1" gradientUnits="userSpaceOnUse" gradientTransform="translate(15.0001 10.0087) rotate(-152.039) scale(11.7459 23.0536)">
<stop stop-color="#70C270"/>
<stop offset="1" stop-color="#269ED9"/>
</radialGradient>
<radialGradient id="paint1_radial_2527_475" cx="0" cy="0" r="1" gradientUnits="userSpaceOnUse" gradientTransform="translate(20.999 18.875) rotate(-145.458) scale(20.6125 45.6251)">
<stop stop-color="#70C270"/>
<stop offset="1" stop-color="#269ED9"/>
</radialGradient>
</defs>
</svg>
