<svg width="24" height="24" viewBox="0 0 24 24" fill="none" xmlns="http://www.w3.org/2000/svg">
<path d="M14 18.996H10C7.87827 18.996 5.84344 18.1534 4.34315 16.6536C2.84285 15.1537 2 13.1195 2 10.9985V6H6V10.9985C6 12.059 6.42143 13.0761 7.17157 13.826C7.92172 14.5759 8.93913 14.9972 10 14.9972V6H14V10.4986L14.03 10.4946C15.126 10.3579 16.1343 9.82568 16.8654 8.998C17.5965 8.17031 18 7.10418 18 6H22L21.658 7.71047C21.4532 8.73424 21.0171 9.69773 20.3832 10.5274C19.7493 11.3571 18.9341 12.0311 18 12.498V12.498C18.9083 12.8005 19.7186 13.3416 20.346 14.0647C20.9734 14.7877 21.3947 15.666 21.566 16.6077L22 18.996H18C18 17.8918 17.5965 16.8257 16.8654 15.998C16.1343 15.1703 15.126 14.6381 14.03 14.5014V19L14 18.996Z" stroke="url(#paint0_radial_2531_492)" stroke-linecap="round" stroke-linejoin="round"/>
<defs>
<radialGradient id="paint0_radial_2531_492" cx="0" cy="0" r="1" gradientUnits="userSpaceOnUse" gradientTransform="translate(22 17.375) rotate(-154.651) scale(20.8753 38.2785)">
<stop stop-color="#70C270"/>
<stop offset="1" stop-color="#269ED9"/>
</radialGradient>
</defs>
</svg>
